<?xml version="1.0" encoding="utf-8"?>
<!-- Generator: Adobe Illustrator 16.0.0, SVG Export Plug-In . SVG Version: 6.00 Build 0)  -->
<!DOCTYPE svg PUBLIC "-//W3C//DTD SVG 1.1//EN" "http://www.w3.org/Graphics/SVG/1.1/DTD/svg11.dtd">
<svg version="1.1" id="Layer_1" xmlns="http://www.w3.org/2000/svg" xmlns:xlink="http://www.w3.org/1999/xlink" x="0px" y="0px"
	 width="24px" height="1659.59px" viewBox="0 0 24 1659.59" enable-background="new 0 0 24 1659.59" xml:space="preserve">
<g>
	<g>
		<g id="Symbol_52_2" transform="translate(-1329 -320)">
			<rect id="Rectangle_4550" x="1329" y="356" fill="none" width="24" height="24"/>
			<path id="ellipsis-v-alt" fill="#333333" d="M1340.613,364.226c1.444,0,2.614-1.17,2.614-2.613c0-1.44-1.17-2.61-2.614-2.61
				c-1.443,0-2.613,1.17-2.613,2.61c-0.001,1.442,1.167,2.612,2.609,2.613C1340.611,364.226,1340.612,364.226,1340.613,364.226z
				 M1340.613,360.161c0.802,0,1.452,0.647,1.452,1.449c0,0.805-0.646,1.452-1.452,1.452c-0.802,0-1.452-0.647-1.452-1.452l0,0
				c0-0.801,0.648-1.448,1.45-1.449C1340.612,360.161,1340.613,360.161,1340.613,360.161z M1340.613,365.387
				c-1.443,0-2.613,1.169-2.613,2.613c0,1.441,1.17,2.61,2.613,2.61c1.444,0,2.614-1.169,2.614-2.61
				c0-1.442-1.168-2.612-2.606-2.613C1340.616,365.387,1340.615,365.387,1340.613,365.387z M1340.613,369.452
				c-0.802,0-1.452-0.65-1.452-1.452c0-0.805,0.65-1.452,1.452-1.452c0.802,0,1.452,0.647,1.452,1.452l0,0
				c0.002,0.801-0.646,1.451-1.446,1.452C1340.615,369.452,1340.614,369.452,1340.613,369.452z M1340.613,371.775
				c-1.443,0-2.613,1.17-2.613,2.613s1.17,2.613,2.613,2.613c1.444,0,2.614-1.17,2.614-2.613c0.002-1.442-1.166-2.613-2.605-2.614
				C1340.617,371.774,1340.615,371.774,1340.613,371.775L1340.613,371.775z M1340.613,375.84c-0.802,0-1.452-0.65-1.452-1.452
				s0.65-1.452,1.452-1.452c0.802,0,1.452,0.65,1.452,1.452l0,0C1342.064,375.189,1341.416,375.839,1340.613,375.84
				C1340.614,375.839,1340.614,375.839,1340.613,375.84L1340.613,375.84z"/>
		</g>
		<g id="Symbol_55_1" transform="translate(0 113)" opacity="0.6">
			<rect id="Rectangle_4550-2" y="343.997" fill="none" width="24" height="24"/>
			<path id="ellipsis-v-alt-2" fill="#333333" d="M15.387,355.997c0,1.443,1.17,2.613,2.613,2.613s2.613-1.17,2.613-2.613
				c0-1.44-1.17-2.61-2.613-2.61c-1.441-0.001-2.611,1.167-2.613,2.606C15.387,355.994,15.387,355.996,15.387,355.997z
				 M19.451,355.997c0,0.805-0.648,1.452-1.451,1.452s-1.452-0.647-1.452-1.452c0-0.802,0.649-1.449,1.452-1.449l0,0
				c0.801,0,1.451,0.646,1.451,1.447C19.451,355.996,19.451,355.996,19.451,355.997z M14.227,355.997c0-1.44-1.17-2.61-2.614-2.61
				S9,354.557,9,355.997c0,1.443,1.17,2.613,2.613,2.613c1.442,0.001,2.612-1.167,2.614-2.606
				C14.227,356.003,14.227,356.001,14.227,355.997z M10.161,355.997c0-0.802,0.65-1.449,1.452-1.449
				c0.802,0,1.452,0.647,1.452,1.449c0,0.805-0.646,1.452-1.452,1.452l0,0c-0.801,0-1.451-0.646-1.452-1.447
				C10.161,356.001,10.161,356.001,10.161,355.997z M7.837,355.997c0-1.44-1.17-2.61-2.613-2.61c-1.443,0-2.613,1.17-2.613,2.61
				c0,1.443,1.17,2.613,2.613,2.613c1.442,0.001,2.612-1.166,2.614-2.605C7.839,356.003,7.839,356.002,7.837,355.997L7.837,355.997z
				 M3.772,355.997c0-0.802,0.65-1.449,1.452-1.449c0.802,0,1.452,0.647,1.452,1.449c0,0.805-0.65,1.452-1.452,1.452l0,0
				C4.424,357.449,3.773,356.803,3.772,355.997L3.772,355.997L3.772,355.997z"/>
		</g>
		<g id="Symbol_51_2" transform="translate(-1214 -26)">
			<path id="paper-plane" fill="#007AFF" d="M1233.311,97.152l-15.749,9.084c-0.538,0.313-0.721,1.001-0.409,1.539
				c0.124,0.214,0.313,0.38,0.542,0.478l4.929,2.039v3.586c0.001,0.621,0.505,1.124,1.126,1.123c0.335,0,0.653-0.15,0.867-0.409
				l2.133-2.594l4.443,1.831c0.566,0.234,1.229-0.036,1.469-0.61c0.033-0.083,0.057-0.169,0.07-0.258l2.252-14.66
				c0.094-0.615-0.328-1.189-0.943-1.283C1233.791,96.976,1233.533,97.024,1233.311,97.152z M1223.749,113.875v-3.122l1.916,0.791
				L1223.749,113.875z M1231.623,112.789l-7.249-3l7.011-8.285c0.084-0.083,0.084-0.217,0-0.3c-0.082-0.083-0.218-0.083-0.3,0
				l-8.975,7.647l-3.99-1.645l15.752-9.083L1231.623,112.789z"/>
			<rect id="Rectangle_4549" x="1214" y="94" fill="none" width="24" height="24"/>
		</g>
		<g id="Symbol_50_3" transform="translate(-1266 -98)">
			<path id="paper-plane-2" fill="#333333" d="M1285.311,202.152l-15.749,9.084c-0.538,0.313-0.721,1.001-0.409,1.539
				c0.124,0.214,0.313,0.38,0.542,0.478l4.929,2.039v3.586c0.001,0.621,0.505,1.124,1.126,1.124c0.335,0,0.653-0.151,0.867-0.41
				l2.133-2.594l4.443,1.831c0.566,0.234,1.229-0.036,1.469-0.61c0.033-0.083,0.057-0.169,0.07-0.258l2.252-14.66
				c0.094-0.615-0.328-1.189-0.943-1.283C1285.791,201.976,1285.533,202.024,1285.311,202.152z M1275.749,218.875v-3.122
				l1.916,0.791L1275.749,218.875z M1283.623,217.789l-7.249-3l7.011-8.285c0.084-0.083,0.084-0.217,0-0.3
				c-0.082-0.083-0.218-0.083-0.3,0l-8.975,7.647l-3.99-1.645l15.752-9.083L1283.623,217.789z"/>
			<rect id="Rectangle_4549-2" x="1266" y="199" fill="none" width="24" height="24"/>
		</g>
		<g id="Symbol_49_2" transform="translate(-1199 -337)">
			<rect id="Rectangle_4488" x="1199" y="470" fill="none" width="24" height="24"/>
			<path id="bullhorn" fill="#333333" d="M1219,479.778V475c-0.006-0.55-0.449-0.995-1-1l0,0c-0.229,0-0.447,0.077-0.625,0.219
				l-2.656,2.126c-1.34,1.069-3.004,1.652-4.719,1.655h-6c-1.104,0-2,0.896-2,2v3c0,1.104,0.896,2,2,2l-0.015,1
				c0,1.201,0.274,2.387,0.8,3.467c0.17,0.332,0.513,0.538,0.886,0.533h3.322c0.549,0.002,0.996-0.441,0.998-0.99
				c0.001-0.212-0.066-0.419-0.191-0.59c-0.53-0.695-0.816-1.545-0.813-2.42c0.001-0.338,0.048-0.674,0.138-1H1210
				c1.715,0.002,3.377,0.586,4.719,1.652l2.656,2.126c0.432,0.348,1.061,0.275,1.406-0.153c0.141-0.181,0.219-0.398,0.219-0.625
				v-4.777c0.951-0.544,1.281-1.756,0.738-2.707C1219.563,480.208,1219.309,479.954,1219,479.778z M1208.994,489h-3.309
				c-0.459-0.931-0.699-1.949-0.7-2.984l0.015-1V485h3.101c-0.075,0.328-0.115,0.664-0.119,1c-0.005,1.084,0.35,2.139,1.008,3
				H1208.994z M1204,484c-0.552,0-1-0.448-1-1v-3c0-0.555,0.448-1,1-1h6v5H1204z M1218,487.967c-0.002,0.01-0.004,0.019-0.008,0.028
				l-2.652-2.121c-1.25-0.995-2.754-1.62-4.34-1.81v-5.133c1.588-0.187,3.092-0.813,4.344-1.808L1218,475l0,0l0,0V487.967
				L1218,487.967z"/>
		</g>
		<g id="Symbol_48_11" transform="translate(-1234 -89)">
			<rect id="Rectangle_4488-2" x="1234" y="255" fill="none" width="24" height="24"/>
			<path id="file-alt" fill="#333333" d="M1252,261.445l-2.947-2.942c-0.313-0.318-0.744-0.498-1.191-0.5h-7.167
				c-0.932,0.003-1.686,0.759-1.687,1.688v14.622c0,0.935,0.755,1.688,1.687,1.688h10.125c0.936,0.001,1.688-0.754,1.688-1.688
				c0,0,0,0,0-0.001V262.64c0-0.451-0.187-0.882-0.5-1.2v0.005H1252z M1251.205,262.245c0.072,0.068,0.125,0.158,0.146,0.26h-3.354
				v-3.359c0.101,0.024,0.188,0.076,0.261,0.148L1251.205,262.245z M1250.807,274.878h-10.12c-0.31-0.001-0.561-0.252-0.562-0.563
				V259.69c0.001-0.31,0.252-0.561,0.562-0.562h6.187v3.655c-0.002,0.465,0.375,0.843,0.84,0.844c0.002,0,0.003,0,0.005,0h3.655
				v10.685c-0.002,0.313-0.254,0.563-0.563,0.563L1250.807,274.878z M1249.123,266.3v0.28c-0.002,0.229-0.189,0.42-0.424,0.42
				h-5.899c-0.232,0-0.421-0.189-0.422-0.422V266.3c0-0.233,0.189-0.422,0.422-0.423h5.899
				C1248.934,265.877,1249.123,266.066,1249.123,266.3L1249.123,266.3z M1249.123,268.55v0.281c0,0.23-0.189,0.421-0.422,0.422
				h-5.901c-0.232,0-0.421-0.189-0.422-0.422v-0.281c0-0.232,0.189-0.421,0.422-0.422h5.899c0.232,0,0.422,0.188,0.424,0.42V268.55z
				 M1249.123,270.8v0.281c-0.002,0.229-0.191,0.419-0.424,0.419h-5.899c-0.232,0-0.421-0.189-0.422-0.422V270.8
				c0-0.232,0.189-0.421,0.422-0.422h5.899C1248.934,270.378,1249.123,270.567,1249.123,270.8z"/>
		</g>
		<g id="Symbol_47_7" transform="translate(-1266 -57)">
			<rect id="Rectangle_4546" x="1266" y="255" fill="none" width="24" height="24"/>
			<path id="envelope" fill="#333333" d="M1285.313,260h-14.625c-0.932,0-1.688,0.756-1.688,1.688l0,0v10.125
				c0,0.935,0.756,1.688,1.688,1.688h14.625c0.938,0,1.688-0.755,1.688-1.688v-10.125C1287,260.756,1286.244,260,1285.313,260z
				 M1270.688,261.125h14.625c0.313,0,0.563,0.252,0.563,0.563v1.455c-0.771,0.65-1.869,1.547-5.295,4.267
				c-0.595,0.472-1.765,1.604-2.581,1.593c-0.816,0.014-1.99-1.121-2.58-1.593c-3.42-2.72-4.525-3.614-5.295-4.267v-1.455
				C1270.125,261.377,1270.377,261.125,1270.688,261.125z M1285.313,272.375h-14.625c-0.31-0.001-0.561-0.252-0.562-0.563v-7.208
				c0.8,0.657,2.067,1.673,4.595,3.684c0.721,0.574,1.993,1.846,3.28,1.839c1.28,0.011,2.542-1.248,3.28-1.839
				c2.527-2.01,3.793-3.023,4.595-3.684v7.207C1285.875,272.123,1285.623,272.375,1285.313,272.375z"/>
		</g>
		<g id="Symbol_45_8" transform="translate(-1223 28)">
			<path id="file-upload" fill="#333333" d="M1241,208.445l-2.945-2.942c-0.313-0.318-0.742-0.498-1.188-0.5h-7.176
				c-0.932,0.003-1.686,0.759-1.687,1.688v14.622c0,0.935,0.755,1.688,1.687,1.688h10.125c0.934,0,1.688-0.755,1.688-1.688V209.64
				C1241.498,209.191,1241.318,208.762,1241,208.445z M1237,206.145c0.1,0.024,0.188,0.076,0.26,0.148l2.949,2.949
				c0.072,0.068,0.125,0.158,0.146,0.26H1237V206.145L1237,206.145z M1240.373,221.312c0,0.313-0.25,0.563-0.563,0.563h-10.125
				c-0.31-0.001-0.561-0.252-0.562-0.563V206.69c0-0.311,0.252-0.563,0.563-0.563h6.188v3.659c0,0.464,0.375,0.84,0.84,0.841
				c0.002,0,0.005,0,0.007,0h3.653L1240.373,221.312z M1234.043,212.618l-2.395,2.521c-0.274,0.291-0.35,0.717-0.191,1.084
				c0.146,0.356,0.494,0.589,0.879,0.588h1.851v3.094c0,0.155,0.126,0.281,0.281,0.281l0,0h0.563c0.155,0,0.281-0.126,0.281-0.281
				l0,0v-3.094h1.852c0.385,0.001,0.73-0.229,0.879-0.588c0.158-0.367,0.084-0.792-0.191-1.083l-2.395-2.521
				c-0.385-0.394-1.013-0.396-1.403-0.013C1234.051,212.61,1234.047,212.614,1234.043,212.618L1234.043,212.618z M1232.682,215.687
				l2.069-2.18l2.067,2.18H1232.682z"/>
			<rect id="Rectangle_4547" x="1223" y="202" fill="none" width="24" height="24"/>
		</g>
		<g id="Symbol_44_15" transform="translate(-1298 61)">
			<path id="trash-alt" fill="#FF0014" d="M1313.813,207.25l-1.182-1.575c-0.318-0.425-0.818-0.675-1.35-0.675h-2.813
				c-0.531,0-1.031,0.25-1.35,0.675l-1.181,1.575h-3.094c-0.465-0.001-0.843,0.375-0.844,0.84c0,0.001,0,0.003,0,0.004v0.07
				c0,0.113,0.095,0.21,0.211,0.211h0.914v12.938c0,0.935,0.756,1.688,1.688,1.688h10.125c0.932,0,1.688-0.755,1.688-1.688v-12.938
				h0.914c0.117,0,0.211-0.098,0.211-0.211v-0.07c0.002-0.465-0.375-0.843-0.84-0.844c0,0-0.002,0-0.004,0H1313.813z
				 M1308.47,206.125h2.813c0.178,0,0.344,0.084,0.447,0.225l0.678,0.9h-5.063l0.675-0.9
				C1308.125,206.209,1308.292,206.125,1308.47,206.125z M1315.5,221.313c0,0.313-0.252,0.563-0.563,0.563h-10.125
				c-0.31-0.001-0.561-0.252-0.562-0.563v-12.938h11.249L1315.5,221.313L1315.5,221.313L1315.5,221.313z M1309.313,219.766v-9.282
				c0-0.23,0.189-0.421,0.422-0.422h0.281c0.233,0,0.421,0.189,0.422,0.422v9.281c0,0.233-0.189,0.421-0.422,0.422h-0.282
				C1309.501,220.186,1309.313,219.998,1309.313,219.766z M1306.5,219.766v-9.282c0-0.23,0.189-0.421,0.422-0.422h0.277
				c0.232,0,0.421,0.189,0.422,0.422v9.281c0,0.233-0.189,0.421-0.422,0.422h-0.278C1306.69,220.187,1306.5,219.999,1306.5,219.766
				L1306.5,219.766z M1312.125,219.766v-9.282c0.002-0.23,0.188-0.421,0.422-0.422h0.281c0.232,0,0.422,0.189,0.422,0.422v9.281
				c0,0.233-0.188,0.421-0.422,0.422h-0.281C1312.314,220.187,1312.125,219.999,1312.125,219.766L1312.125,219.766z"/>
			<rect id="Rectangle_4546-2" x="1298" y="202" fill="none" width="24" height="24"/>
		</g>
		<g id="Symbol_43_7" transform="translate(-1247 93)">
			<rect id="Rectangle_4488-3" x="1247" y="202" fill="none" width="24" height="24"/>
			<path id="file-plus" fill="#333333" d="M1265,208.445l-2.947-2.942c-0.313-0.318-0.744-0.498-1.191-0.5h-7.167
				c-0.932,0.003-1.686,0.759-1.687,1.688v14.622c0,0.935,0.755,1.688,1.687,1.688h10.125c0.936,0.001,1.688-0.754,1.688-1.688
				c0,0,0,0,0-0.001V209.64c0-0.451-0.187-0.882-0.5-1.2v0.005H1265z M1264.205,209.245c0.072,0.068,0.125,0.158,0.146,0.26h-3.354
				v-3.359c0.101,0.024,0.188,0.076,0.261,0.148L1264.205,209.245z M1263.807,221.878h-10.12c-0.31-0.001-0.561-0.252-0.562-0.563
				V206.69c0.001-0.31,0.252-0.561,0.562-0.562h6.187v3.655c-0.002,0.465,0.375,0.843,0.84,0.844c0.002,0,0.003,0,0.005,0h3.655
				v10.685c-0.002,0.313-0.254,0.563-0.563,0.563L1263.807,221.878z M1262.119,215.551v0.281c0,0.23-0.189,0.421-0.422,0.422h-2.387
				v2.39c0,0.233-0.189,0.421-0.422,0.422h-0.281c-0.233,0-0.421-0.188-0.422-0.422v-2.39h-2.386c-0.232,0-0.421-0.189-0.422-0.422
				v-0.281c0-0.232,0.189-0.421,0.422-0.422h2.39v-2.396c0-0.23,0.188-0.421,0.422-0.422h0.281c0.233,0,0.421,0.189,0.422,0.422
				v2.393h2.384c0.233,0,0.424,0.188,0.424,0.422L1262.119,215.551z"/>
		</g>
		<g id="Symbol_42_1" transform="translate(-1081 333)">
			<rect id="Rectangle_4487" x="1081" y="253.997" fill="none" width="24" height="24"/>
			<path id="Subtraction_1" fill="#BE2433" d="M1099.574,276.323h-13.149c-0.442,0-0.8-0.355-0.8-0.8l0,0v-3.524H1085
				c-0.552,0-1-0.444-1-1v-7c0-0.553,0.448-1,1-1h0.628V256.8c0-0.438,0.358-0.803,0.8-0.803l0,0h9.63
				c0.024,0,0.063,0.008,0.092,0.015h0.01h0.012c0.027,0.008,0.055,0.021,0.078,0.033l0.016,0.008l0.02,0.008
				c0.023,0.021,0.059,0.042,0.077,0.067l3.923,4.479c0.063,0.067,0.096,0.158,0.096,0.258c0,0.007,0,0.016,0,0.021v0.005
				c0.002,0.012,0.002,0.018,0,0.021v2.092h0.631c0.557,0,1,0.445,1,1v7c0,0.554-0.443,1-1,1h-0.627v3.526
				C1100.371,275.968,1100.014,276.323,1099.574,276.323z M1086.426,271.997v3.313h13.15v-3.313H1086.426z M1095.551,265.023v4.977
				h1v-2.065h1.91v-0.771h-1.91v-1.368h2.258v-0.771H1095.551L1095.551,265.023z M1090.918,265.023v4.977h1.736
				c0.558,0.02,1.099-0.189,1.5-0.577c0.396-0.396,0.607-0.938,0.592-1.495v-0.824c0.021-0.559-0.193-1.1-0.592-1.489
				c-0.4-0.395-0.94-0.604-1.5-0.583L1090.918,265.023L1090.918,265.023z M1086.458,265.023v4.977h1v-1.8h0.906
				c0.488,0.022,0.97-0.128,1.351-0.438c0.327-0.289,0.508-0.711,0.492-1.146c0.016-0.438-0.165-0.857-0.492-1.149
				c-0.38-0.312-0.861-0.467-1.351-0.438L1086.458,265.023z M1086.427,256.797v6.197h13.149v-1.726h-3.52
				c-0.228-0.006-0.4-0.185-0.4-0.4V256.8L1086.427,256.797z M1092.656,269.234h-0.738v-3.439h0.738
				c0.307-0.013,0.601,0.126,0.793,0.362c0.208,0.27,0.313,0.602,0.299,0.938v0.831c0.016,0.34-0.092,0.673-0.299,0.938
				C1093.258,269.107,1092.962,269.24,1092.656,269.234L1092.656,269.234z M1088.363,267.426h-0.906v-1.634h0.906
				c0.236-0.021,0.467,0.065,0.635,0.231c0.144,0.163,0.22,0.375,0.213,0.593c0.007,0.214-0.07,0.422-0.215,0.58
				C1088.826,267.36,1088.596,267.442,1088.363,267.426L1088.363,267.426z"/>
		</g>
		<g id="Symbol_38_2" transform="translate(-703 -86)">
			<rect id="Rectangle_4501" x="703" y="414" fill="none" width="24" height="23.997"/>
			<path id="download" fill="#333333" d="M721.891,432.188c0,0.391-0.313,0.7-0.699,0.7c-0.385,0-0.692-0.313-0.692-0.7
				s0.313-0.696,0.692-0.696l0,0C721.576,431.49,721.889,431.803,721.891,432.188z M718.938,431.488c-0.387,0-0.692,0.313-0.692,0.7
				s0.313,0.696,0.692,0.696c0.394,0,0.701-0.313,0.701-0.696l0,0c0-0.391-0.313-0.701-0.701-0.704V431.488z M724,429.8v3.653
				c-0.002,0.854-0.693,1.544-1.547,1.544h-14.907c-0.854,0-1.547-0.689-1.547-1.547l0,0v-3.65
				c-0.001-0.854,0.689-1.548,1.544-1.553c0.001,0,0.002,0,0.003,0h3.494l-1.982-1.98c-0.548-0.551-0.547-1.438,0.004-1.986
				c0.263-0.266,0.62-0.407,0.991-0.407h1.852v-5.461c0-0.777,0.63-1.406,1.406-1.406c0,0,0,0,0.001,0h3.375
				c0.771,0,1.406,0.629,1.406,1.406l0,0v5.46h1.854c0.777,0.002,1.406,0.634,1.402,1.409c0,0.37-0.146,0.728-0.408,0.984
				l-1.982,1.983h3.496c0.854,0,1.545,0.691,1.545,1.549C724,429.799,724,429.799,724,429.8z M714.8,430.422
				c0.11,0.107,0.289,0.108,0.399,0.001l0.001-0.001l4.947-4.946c0.104-0.107,0.104-0.291-0.004-0.396
				c-0.057-0.052-0.123-0.082-0.197-0.082h-2.979v-6.585c0-0.155-0.126-0.281-0.277-0.281h-3.375c-0.155,0-0.28,0.126-0.281,0.281
				v6.582h-2.978c-0.156,0-0.283,0.128-0.282,0.284c0,0.07,0.03,0.146,0.082,0.194L714.8,430.422z M722.875,429.8
				c0-0.229-0.189-0.421-0.422-0.422h-4.621l-1.838,1.836c-0.549,0.549-1.439,0.549-1.99,0l-1.839-1.842h-4.619
				c-0.233,0-0.421,0.189-0.422,0.425v3.653c0,0.229,0.189,0.421,0.422,0.422h14.907c0.23,0,0.422-0.188,0.422-0.422V429.8z"/>
		</g>
		<g id="ic_edit" transform="translate(-1215 167)">
			<rect id="Rectangle_4497" x="1215" y="192.997" fill="none" width="24" height="24"/>
			<path id="edit" fill="#333333" d="M1232.057,206.859l0.625-0.625c0.07-0.073,0.189-0.075,0.262-0.003
				c0.037,0.032,0.063,0.084,0.063,0.135v5.134c0,0.829-0.672,1.5-1.5,1.5l0,0h-11c-0.829,0-1.5-0.671-1.5-1.5l0,0v-11
				c0-0.826,0.671-1.5,1.5-1.5h9.138c0.104,0.004,0.188,0.088,0.188,0.188c0,0.053-0.021,0.1-0.055,0.134l-0.625,0.625
				c-0.035,0.031-0.082,0.058-0.135,0.059h-8.512c-0.276,0-0.5,0.224-0.5,0.5v11c0,0.273,0.224,0.5,0.5,0.5h11
				c0.273,0,0.5-0.227,0.5-0.5v-4.512C1231.998,206.941,1232.02,206.893,1232.057,206.859z M1236.615,200.884l-9.765,9.77
				l-3.122,0.353c-0.36,0.042-0.686-0.218-0.728-0.575c-0.006-0.051-0.006-0.104,0-0.149l0.35-3.122l9.767-9.77
				c0.512-0.512,1.342-0.512,1.854,0l1.646,1.646C1237.129,199.538,1237.129,200.368,1236.615,200.884L1236.615,200.884z
				 M1233.691,202.4l-2.086-2.091l-7.299,7.304l-0.259,2.35l2.347-0.263l7.299-7.3H1233.691z M1235.91,199.738l-1.645-1.646
				c-0.121-0.122-0.318-0.122-0.439-0.001v0.001l-1.514,1.509l2.088,2.092l1.514-1.517c0.121-0.121,0.121-0.314,0-0.438v-0.001
				L1235.91,199.738z"/>
		</g>
		<g id="Symbol_31_1" transform="translate(-803 65)">
			<rect id="Rectangle_4487-2" x="803" y="553.999" fill="none" width="24" height="24"/>
			<g id="xml-file-format-symbol" transform="translate(774.496 524)">
				<path id="Path_7061" fill="#009FD1" d="M48.365,39.27h-0.488v-2.357c0.002-0.015,0.002-0.026,0-0.044
					c0-0.095-0.032-0.188-0.096-0.258l-3.922-4.479l0,0c-0.023-0.021-0.051-0.048-0.08-0.063l-0.027-0.02
					c-0.025-0.017-0.053-0.021-0.08-0.033l-0.021-0.006c-0.027-0.006-0.061-0.013-0.092-0.013h-9.631c-0.442,0-0.8,0.358-0.8,0.803
					v6.47H32.64c-0.629,0-1.139,0.515-1.14,1.144c0,0,0,0,0,0.001v5.927c0,0.629,0.51,1.139,1.139,1.139h0.488v4.061
					c0,0.438,0.358,0.803,0.8,0.803H47.08c0.439,0,0.799-0.358,0.799-0.803v-4.06h0.488c0.627-0.004,1.133-0.513,1.133-1.14v-5.935
					C49.5,39.781,48.992,39.272,48.365,39.27z M33.928,32.8h9.232v4.072c0,0.224,0.178,0.4,0.398,0.4l0,0h3.521v2H33.928V32.8z
					 M43.977,45.82h-1.182l-0.08-2.049c-0.023-0.646-0.049-1.427-0.049-2.2h-0.021c-0.168,0.686-0.391,1.439-0.602,2.066
					l-0.643,2.096h-0.945l-0.572-2.072c-0.174-0.627-0.357-1.39-0.484-2.089H39.38c-0.032,0.726-0.056,1.548-0.1,2.215l-0.1,2.033
					h-1.11l0.342-5.354h1.612l0.524,1.787c0.167,0.616,0.334,1.283,0.452,1.91h0.023c0.146-0.616,0.334-1.323,0.508-1.921
					l0.563-1.775h1.58L43.977,45.82z M32.923,45.82l1.548-2.708l-1.491-2.644h1.389l0.468,0.979
					c0.159,0.326,0.278,0.588,0.406,0.892h0.016c0.127-0.344,0.23-0.579,0.365-0.892l0.453-0.979h1.381l-1.509,2.609l1.588,2.739
					h-1.4l-0.485-0.975c-0.2-0.373-0.325-0.646-0.476-0.961H35.16c-0.111,0.313-0.246,0.588-0.413,0.961l-0.444,0.975L32.923,45.82
					L32.923,45.82z M47.08,51.312H33.929v-3.84H47.08V51.312z M48.25,45.82h-3.344v-5.351h1.215V44.8h2.129V45.82L48.25,45.82z"/>
			</g>
		</g>
		<g id="Symbol_30_1" transform="translate(-803 -817)">
			<rect id="Rectangle_4486" x="803" y="1468.999" fill="none" width="24" height="24"/>
			<g id="surface1_1_" transform="translate(806 1440)">
				<path id="Path_7060" fill="#1473E6" d="M10.617,31.997L10.617,31.997L0.294,33.984C0.113,34.005-0.019,34.169,0,34.35v13.7
					c-0.007,0.179,0.118,0.335,0.294,0.367l10.286,1.946c0.104,0.033,0.219,0.005,0.295-0.07c0.082-0.076,0.137-0.184,0.146-0.297
					v-1.837h6.246c0.396-0.001,0.729-0.329,0.729-0.731V34.939c0-0.406-0.33-0.734-0.729-0.735h-6.246v-1.839
					c0.004-0.105-0.037-0.214-0.108-0.294C10.816,32.031,10.717,32.007,10.617,31.997z M10.285,32.808v1.653
					c-0.037,0.065-0.037,0.148,0,0.22v14.878l-9.549-1.837V34.645L10.285,32.808z M11.02,34.939h6.246v12.484H11.02V45.59h5.146
					v-0.73H11.02v-2.2h5.146V41.92H11.02v-1.841h5.146v-0.732H11.02V37.51h5.146v-0.734H11.02V34.939z M1.689,37.767l1.4,6.869h1.4
					L5.4,40.229c0.037-0.22,0.073-0.478,0.11-0.771l0,0c0.003,0.262,0.027,0.52,0.073,0.771l0.882,4.408h1.323l1.4-6.869H7.971
					l-0.735,4.598c-0.042,0.255-0.067,0.516-0.073,0.771l0,0C7.126,42.802,7.126,42.579,7.09,42.4l-0.882-4.632H4.922l-0.955,4.561
					c-0.07,0.267-0.107,0.535-0.11,0.811H3.82c0-0.271-0.025-0.541-0.073-0.811l-0.735-4.561L1.689,37.767L1.689,37.767z"/>
			</g>
		</g>
		<g id="Exxcel" transform="translate(-24 556)">
			<rect id="Rectangle_4487-3" x="24" y="127.997" fill="none" width="24" height="24"/>
			<g id="Microsoft_Excel_2013_logo" transform="translate(27 99)">
				<path id="path10" fill="#207245" d="M9.414,31.997h1.215v1.639c2.047,0,4.094,0,6.141-0.006
					c0.354-0.031,0.709,0.038,1.025,0.197c0.164,0.319,0.236,0.678,0.205,1.033c-0.01,3.55-0.01,7.101,0,10.646
					c0.033,0.598,0.012,1.193-0.07,1.789c-0.082,0.425-0.594,0.438-0.934,0.447c-2.119,0.009-4.239,0-6.359,0v1.843H9.359
					C6.243,49.019,3.12,48.497,0,47.948v-14.31C3.14,33.092,6.277,32.554,9.414,31.997z"/>
				<path id="path48" fill="#FFFFFF" d="M11.037,34.121h6.373v13.146h-6.373v-1.252h1.545v-1.46h-1.545v-0.831h1.545v-1.46h-1.545
					v-0.84h1.545v-1.46h-1.545V39.13h1.545v-1.46h-1.545v-0.834h1.545v-1.46h-1.545V34.121z"/>
				<path id="path58" fill="#207245" d="M13.355,35.49h2.701v1.354h-2.701V35.49z"/>
				<path id="path72" fill="#FFFFFF" d="M5.721,37.572c0.437-0.032,0.874-0.062,1.313-0.08c-0.516,1.059-1.035,2.112-1.558,3.164
					c0.531,1.081,1.074,2.155,1.607,3.231c-0.465-0.021-0.929-0.059-1.394-0.089C5.322,43.016,5,42.202,4.725,41.379
					c-0.263,0.781-0.637,1.521-0.939,2.292C3.363,43.662,2.94,43.65,2.517,43.63c0.5-0.974,0.975-1.95,1.487-2.916
					c-0.435-0.995-0.912-1.973-1.36-2.959c0.425-0.021,0.85-0.053,1.275-0.073c0.288,0.761,0.6,1.5,0.84,2.272
					C5.014,39.137,5.393,38.365,5.721,37.572L5.721,37.572z"/>
				<path id="path90" fill="#207245" d="M13.355,37.753h2.701v1.354h-2.701V37.753z"/>
				<path id="path108" fill="#207245" d="M13.355,40.014h2.701v1.354h-2.701V40.014z"/>
				<path id="path114" fill="#207245" d="M13.355,42.274h2.701v1.354h-2.701V42.274z"/>
				<path id="path120" fill="#207245" d="M13.355,44.531h2.701v1.354h-2.701V44.531z"/>
			</g>
		</g>
		<g id="Symbol_46_14" transform="translate(-1330 190)">
			<rect id="Rectangle_4546-3" x="1330" y="201.997" fill="none" width="24" height="24"/>
			<path id="eye" fill="#333333" d="M1350.791,212.988c-2.9-4.854-9.19-6.438-14.046-3.538c-1.454,0.869-2.669,2.084-3.538,3.538
				c-0.277,0.473-0.277,1.053,0,1.521c2.902,4.854,9.191,6.438,14.047,3.538c1.453-0.869,2.67-2.084,3.537-3.538
				C1351.068,214.038,1351.068,213.455,1350.791,212.988z M1346,212.872c-0.035,2.177-1.826,3.909-4,3.875
				c-2.14,0.069-3.931-1.607-4-3.75c-0.069-2.14,1.61-3.931,3.75-4c0.083-0.002,0.166-0.002,0.249,0
				C1344.174,208.966,1345.965,210.698,1346,212.872z M1349.93,213.997c-2.621,4.383-8.295,5.808-12.678,3.186
				c-1.307-0.778-2.4-1.875-3.183-3.186c-0.092-0.154-0.092-0.351,0-0.508c0.938-1.581,2.326-2.842,3.989-3.621
				c-0.685,0.853-1.059,1.908-1.059,3c0.032,2.729,2.268,4.911,4.994,4.879c0.002,0,0.004,0,0.007,0c2.727,0.035,4.965-2.146,5-4.87
				c0-0.001,0-0.001,0-0.005c0-1.092-0.375-2.147-1.059-3c1.664,0.78,3.053,2.046,3.986,3.625c0.094,0.157,0.094,0.354,0,0.511
				L1349.93,213.997L1349.93,213.997z M1340,212.747c0-0.326,0.08-0.649,0.235-0.939l0,0c0,0.455,0.369,0.824,0.824,0.824
				s0.824-0.369,0.824-0.824s-0.369-0.82-0.824-0.82l0,0l0,0c0.975-0.521,2.186-0.148,2.707,0.82
				c0.521,0.979,0.15,2.188-0.824,2.706c-0.972,0.521-2.187,0.148-2.706-0.82C1340.081,213.4,1340,213.075,1340,212.747z"/>
		</g>
		<g id="Symbol_54_1" transform="translate(0 105)">
			<rect id="Rectangle_4546-4" y="319.997" fill="none" width="24" height="24"/>
			<path id="plus" fill="#02B875" d="M20.625,330.872h-7.5v-7.5c0-0.204-0.168-0.375-0.375-0.375h-1.5
				c-0.207,0-0.375,0.171-0.375,0.375v7.5h-7.5c-0.207,0-0.375,0.171-0.375,0.375v1.5c0,0.207,0.168,0.375,0.375,0.375h7.5v7.5
				c0,0.207,0.168,0.375,0.375,0.375h1.5c0.207,0,0.375-0.168,0.375-0.375v-7.5h7.5c0.207,0,0.375-0.168,0.375-0.375v-1.5
				C21,331.043,20.832,330.872,20.625,330.872z"/>
		</g>
		<g id="Symbol_56_1" transform="translate(0 122)" opacity="0.6">
			<rect id="Rectangle_4550-3" y="367.997" fill="none" width="24" height="24"/>
			<g id="Group_52" transform="translate(2 338)">
				<g id="Group_51" transform="translate(1 7.497)">
					
						<line id="Line_5" fill="none" stroke="#333333" stroke-width="1.5" stroke-linecap="round" stroke-linejoin="round" stroke-miterlimit="10" x1="0" y1="34.497" x2="7.732" y2="34.497"/>
					
						<path id="Path_44" fill="none" stroke="#333333" stroke-width="1.5" stroke-linecap="round" stroke-linejoin="round" stroke-miterlimit="10" d="
						M5.433,36.967c0-0.033,2.6-2.5,2.6-2.5l-2.6-2.47"/>
				</g>
				
					<path id="Path_45" fill="none" stroke="#333333" stroke-width="1.5" stroke-linecap="round" stroke-linejoin="round" stroke-miterlimit="10" d="
					M4.067,39.15V35.4c0.074-1.379,1.237-2.445,2.617-2.4h9.66c1.393-0.061,2.576,1.01,2.656,2.4v13.2
					c-0.074,1.379-1.236,2.445-2.617,2.397h-9.7c-1.385,0.062-2.555-1.016-2.616-2.397v-3.75"/>
			</g>
		</g>
		<g id="Symbol_57_1" transform="translate(0 129)">
			<rect id="Rectangle_4550-4" y="392.997" fill="none" width="24" height="24"/>
			<g id="Group_70" transform="translate(3 364)">
				
					<circle id="Ellipse_8" fill="none" stroke="#F80707" stroke-width="1.5" stroke-linecap="round" stroke-linejoin="round" stroke-miterlimit="10" cx="9" cy="40.997" r="8"/>
				<g id="Group_69" transform="translate(7.067 7.067)">
					
						<line id="Line_17" fill="none" stroke="#F80707" stroke-width="1.5" stroke-linecap="round" stroke-linejoin="round" stroke-miterlimit="10" x1="0" y1="32" x2="3.867" y2="35.867"/>
					
						<line id="Line_18" fill="none" stroke="#F80707" stroke-width="1.5" stroke-linecap="round" stroke-linejoin="round" stroke-miterlimit="10" x1="3.867" y1="32" x2="0" y2="35.867"/>
				</g>
			</g>
		</g>
		<g id="Symbol_58_1" transform="translate(0 138)">
			<rect id="Rectangle_4550-5" y="415.997" fill="none" width="24" height="24"/>
			<path id="calendar-day" fill="#333333" d="M18.063,421.247h-1.688v-1.969c0-0.152-0.127-0.277-0.281-0.281h-0.563
				c-0.154,0.004-0.279,0.129-0.281,0.281v1.969H8.5v-1.969c0-0.152-0.126-0.277-0.281-0.281H7.656
				c-0.155,0.004-0.28,0.129-0.281,0.281v1.969H5.688c-0.932,0-1.688,0.759-1.688,1.688l0,0v12.375c0,0.932,0.756,1.687,1.688,1.687
				h12.375c0.938,0,1.688-0.755,1.688-1.688v-12.375C19.75,422.006,18.994,421.247,18.063,421.247z M18.625,435.313
				c0,0.313-0.252,0.563-0.563,0.563H5.687c-0.31-0.004-0.561-0.255-0.562-0.563v-9.564h13.5V435.313z M18.625,424.626h-13.5v-1.688
				c0.001-0.313,0.252-0.563,0.563-0.563h12.375c0.313,0.001,0.563,0.253,0.563,0.563L18.625,424.626L18.625,424.626z
				 M7.938,432.497h3.374c0.311-0.001,0.562-0.252,0.563-0.563v-3.375c0-0.313-0.252-0.563-0.563-0.563H7.938
				c-0.311,0.003-0.562,0.255-0.562,0.563v3.375C7.376,432.245,7.627,432.496,7.938,432.497z M8.5,429.122h2.25v2.25H8.5V429.122z"
				/>
		</g>
		<g id="Symbol_59_1" transform="translate(0 4)">
			<rect id="Rectangle_4551" y="711.999" fill="none" width="24" height="24"/>
			<g id="Group_5709" transform="translate(3 683)">
				<path id="Path_427" fill="none" stroke="#333333" stroke-linejoin="round" stroke-miterlimit="10" d="M4.327,45.673H2.764
					C1.792,45.663,1.007,44.881,1,43.907v-5.852c0.01-0.964,0.798-1.736,1.763-1.73h0.001h12.472
					c0.973,0.009,1.758,0.791,1.764,1.765v5.854c-0.006,0.971-0.791,1.756-1.764,1.763h-1.529"/>
				<path id="Path_428" fill="none" stroke="#333333" stroke-linejoin="round" stroke-miterlimit="10" d="M14.404,48.567H3.562
					l1.231-6.486h8.383L14.404,48.567z"/>
				<path id="Path_429" fill="none" stroke="#333333" stroke-linejoin="round" stroke-miterlimit="10" d="M4.662,43.146h-1.2v-3.493
					h11.144v3.493h-1.301"/>
				
					<rect id="Rectangle_481" x="5.125" y="32.997" fill="none" stroke="#333333" stroke-linejoin="round" stroke-miterlimit="10" width="7.684" height="3.326"/>
			</g>
		</g>
		<g id="Symbol_60_1">
			<rect id="Rectangle_4551-2" y="747.999" fill="none" width="24" height="24"/>
			<path id="redo" d="M19.613,751.999h-0.322c-0.215,0-0.389,0.174-0.389,0.388v3.566c-2.232-3.813-7.134-5.092-10.946-2.856
				c-3.813,2.23-5.092,7.14-2.859,10.947c2.233,3.813,7.134,5.092,10.945,2.855c0.472-0.273,0.912-0.604,1.315-0.963
				c0.16-0.146,0.175-0.394,0.022-0.554c-0.004-0.004-0.009-0.009-0.013-0.017l-0.229-0.229c-0.146-0.146-0.38-0.149-0.531-0.02
				c-2.836,2.55-7.196,2.313-9.742-0.521c-2.547-2.838-2.313-7.196,0.522-9.743c2.835-2.548,7.198-2.313,9.745,0.521
				c0.396,0.438,0.729,0.927,1,1.446h-3.688c-0.213,0-0.387,0.177-0.387,0.39v0.32c0,0.217,0.174,0.39,0.387,0.39h5.16
				c0.215,0.001,0.393-0.172,0.393-0.388c0,0,0-0.002,0-0.003v-5.159C20,752.173,19.826,751.999,19.613,751.999z"/>
		</g>
		<g id="Symbol_61_1">
			<path id="paper-plane-3" fill="#FFFFFF" d="M19.311,783.152l-15.749,9.084c-0.538,0.313-0.721,1.001-0.409,1.539
				c0.124,0.213,0.314,0.381,0.542,0.475l4.929,2.039v3.586c0.001,0.621,0.505,1.125,1.126,1.123c0.335,0,0.653-0.147,0.867-0.405
				l2.133-2.597l4.443,1.83c0.572,0.231,1.229-0.035,1.469-0.606c0.033-0.084,0.059-0.17,0.07-0.259l2.252-14.66
				c0.094-0.614-0.328-1.188-0.943-1.283C19.791,782.977,19.533,783.024,19.311,783.152z M9.749,799.874v-3.12l1.916,0.791
				L9.749,799.874z M17.623,798.786l-7.249-3l7.013-8.282c0.081-0.083,0.081-0.22,0-0.303c-0.084-0.083-0.22-0.083-0.302,0
				l-8.975,7.649l-3.99-1.646l15.752-9.081L17.623,798.786z"/>
			<rect id="Rectangle_4549-3" y="779.999" fill="none" width="24" height="24"/>
		</g>
		<g id="Symbol_62_1" transform="translate(0 -1)">
			<rect id="Rectangle_4574" y="812.999" fill="none" width="24" height="24"/>
			<g id="Group_74" transform="translate(-211 787)">
				
					<path id="Combined_Shape" fill="none" stroke="#FFFFFF" stroke-linecap="round" stroke-linejoin="round" stroke-miterlimit="10" d="
					M228.99,41.698L228.99,41.698c-0.475-0.604-0.75-1.336-0.789-2.104v-4.396c0-2.873-2.328-5.201-5.201-5.201
					c-2.872,0-5.2,2.328-5.2,5.201v4.396c-0.02,0.771-0.298,1.515-0.79,2.104L215,44.001h16L228.99,41.698z"/>
				<path id="Combined_Shape-2" fill="#FFFFFF" d="M221.399,43.599c-0.663,0.89-0.483,2.144,0.4,2.806
					c0.884,0.662,2.139,0.479,2.801-0.397c0.532-0.711,0.532-1.688,0-2.4L221.399,43.599L221.399,43.599z"/>
			</g>
		</g>
		<g id="Symbol_63_1" transform="translate(0 -7)">
			<rect id="Rectangle_4575" y="850.999" fill="none" width="24" height="24"/>
			<g id="Group_5717" transform="translate(3 822)">
				<g id="Group_14" transform="translate(7.016 4.431)">
					<path id="Path_27" fill="#FFFFFF" d="M1.265,38.728l-0.041-0.365c-0.065-0.861,0.247-1.714,0.857-2.324
						c0.526-0.494,0.86-1.16,0.938-1.877c0-0.691-0.449-1.146-1.306-1.187c-0.49,0.004-0.971,0.147-1.386,0.409L0,32.529
						C0.588,32.168,1.268,31.982,1.958,32c1.096-0.135,2.094,0.646,2.229,1.74c0.011,0.086,0.016,0.174,0.016,0.26
						c-0.088,0.908-0.51,1.752-1.184,2.365c-0.533,0.522-0.814,1.254-0.775,2v0.364L1.265,38.728L1.265,38.728z M0.979,40.646
						c0.022-0.449,0.405-0.798,0.856-0.775c0.451,0.021,0.797,0.403,0.776,0.854C2.589,41.162,2.231,41.5,1.795,41.5
						C1.337,41.482,0.978,41.105,0.979,40.646L0.979,40.646z"/>
				</g>
				
					<circle id="Ellipse_1" fill="none" stroke="#FFFFFF" stroke-linecap="round" stroke-linejoin="round" stroke-miterlimit="10" cx="9" cy="40.997" r="8"/>
			</g>
		</g>
		<g id="Symbol_65_1">
			<rect id="Rectangle_4576" y="875.999" fill="none" width="24" height="24"/>
			<path id="bullhorn-2" fill="#FFFFFF" d="M20,885.779v-4.779c-0.006-0.549-0.45-0.991-1-1l0,0c-0.229,0-0.447,0.078-0.625,0.222
				l-2.656,2.127c-1.34,1.065-3.004,1.649-4.719,1.651H5c-1.104,0-2,0.896-2,2v3c0,1.104,0.896,2,2,2l-0.015,1
				c0,1.201,0.274,2.39,0.8,3.47c0.17,0.332,0.513,0.539,0.886,0.53h3.322c0.549,0.005,0.996-0.438,0.998-0.987
				c0.001-0.211-0.066-0.418-0.191-0.59c-0.53-0.695-0.816-1.548-0.815-2.423c0.001-0.338,0.048-0.674,0.138-1H11
				c1.715,0.005,3.377,0.589,4.718,1.656l2.657,2.125c0.432,0.349,1.061,0.273,1.406-0.156c0.142-0.176,0.219-0.396,0.219-0.625
				v-4.774c0.951-0.543,1.281-1.754,0.738-2.707C20.563,886.208,20.309,885.952,20,885.779z M9.994,894.999H6.685
				c-0.459-0.93-0.699-1.948-0.7-2.983l0.015-1v-0.017h3.101c-0.075,0.326-0.115,0.662-0.119,1c-0.005,1.084,0.35,2.14,1.008,3
				H9.994z M5,889.999c-0.552,0-1-0.446-1-1v-3c0-0.555,0.448-1,1-1h6v5H5z M19,893.966c-0.002,0.01-0.004,0.021-0.008,0.026
				l-2.651-2.119c-1.251-0.993-2.755-1.62-4.341-1.809v-5.143c1.588-0.188,3.092-0.813,4.343-1.81L19,880.999l0,0l0,0V893.966
				L19,893.966z"/>
		</g>
		<g id="Symbol_64_1">
			<g id="Group_5718" transform="translate(-1002 864)">
				<g id="Ellipse_4" transform="translate(1005 21)">
					<circle fill="#FFFFFF" cx="2.5" cy="34.497" r="2.5"/>
					<circle fill="none" stroke="#FFFFFF" cx="2.5" cy="34.497" r="2"/>
				</g>
				<g id="Ellipse_5" transform="translate(1011.5 21)">
					<circle fill="#FFFFFF" cx="2.5" cy="34.497" r="2.5"/>
					<circle fill="none" stroke="#FFFFFF" cx="2.5" cy="34.497" r="2"/>
				</g>
				<g id="Ellipse_6" transform="translate(1018 21)">
					<circle fill="#FFFFFF" cx="2.5" cy="34.497" r="2.5"/>
					<circle fill="none" stroke="#FFFFFF" cx="2.5" cy="34.497" r="2"/>
				</g>
			</g>
			<rect id="Rectangle_4577" y="907.999" fill="none" width="24" height="24"/>
		</g>
		<g id="Symbol_66_2" transform="translate(-938 839)" opacity="0.6">
			<rect id="Rectangle_4579" x="938" y="100.997" fill="none" width="24" height="24"/>
			<path id="file-import" fill="#333333" d="M958.5,107.445l-2.945-2.945c-0.313-0.315-0.742-0.495-1.188-0.5h-7.176
				c-0.932,0.007-1.686,0.763-1.687,1.691v8.434h-4.219c-0.155,0-0.281,0.13-0.281,0.281l0,0v0.563c0,0.153,0.126,0.278,0.281,0.278
				l0,0H950v1.853c-0.001,0.393,0.231,0.729,0.587,0.879c0.367,0.16,0.793,0.094,1.086-0.188l2.521-2.389
				c0.396-0.367,0.41-0.979,0.043-1.371c-0.014-0.018-0.021-0.026-0.043-0.043l-2.521-2.397c-0.291-0.271-0.717-0.349-1.084-0.188
				c-0.354,0.146-0.585,0.486-0.586,0.873v1.854h-3.375v-8.437c0-0.313,0.252-0.563,0.563-0.563h6.189v3.655
				c0,0.465,0.375,0.84,0.839,0.845c0.004,0,0.004,0,0.008,0h3.653v10.688c0,0.313-0.252,0.563-0.563,0.563H947.19
				c-0.31,0-0.561-0.252-0.562-0.563v-3.938h-1.125v3.938c0,0.932,0.755,1.688,1.687,1.688h10.125c0.938,0,1.688-0.759,1.688-1.688
				V108.64C958.998,108.191,958.818,107.761,958.5,107.445z M951.125,112.616l2.18,2.068l-2.18,2.068V112.616z M954.5,108.497
				v-3.354c0.1,0.023,0.188,0.074,0.26,0.146l2.949,2.946c0.072,0.064,0.125,0.162,0.146,0.26L954.5,108.497L954.5,108.497z"/>
		</g>
		<g id="Symbol_77_3" transform="translate(-789 663)">
			<g id="checkmark-circled" transform="translate(760 248)">
				<path id="Path_22094" fill="#008E18" d="M41,63.997c-4.971,0-9,4.029-9,9c0,4.974,4.029,9,9,9c4.971,0,9-4.026,9-9
					C50,68.029,45.971,63.997,41,63.997z M45.617,69.99l-5.588,7.172c-0.044,0.043-0.117,0.144-0.2,0.144
					c-0.08-0.012-0.152-0.053-0.2-0.117c-0.052-0.053-3.17-3.051-3.17-3.051l-0.06-0.062c-0.059-0.073-0.059-0.184,0-0.258
					c0.016-0.018,0.03-0.031,0.044-0.047c0.309-0.326,0.936-0.984,0.976-1.025s0.1-0.118,0.193-0.118
					c0.093,0,0.165,0.084,0.213,0.133c0.048,0.049,1.808,1.737,1.808,1.737l4.473-5.743c0.039-0.035,0.09-0.058,0.146-0.06
					c0.055,0,0.104,0.021,0.146,0.053l1.229,0.97c0.033,0.041,0.051,0.09,0.055,0.146C45.666,69.906,45.648,69.952,45.617,69.99z"/>
			</g>
			<rect id="Rectangle_4618" x="789" y="308.997" fill="none" width="24" height="24"/>
		</g>
		<g id="Symbol_76_3" transform="translate(-1274 588)">
			<path id="file-edit" fill="#333333" d="M1292,422.445l-2.947-2.945c-0.313-0.315-0.744-0.495-1.191-0.5h-7.167
				c-0.932,0.007-1.686,0.763-1.687,1.691v14.623c0,0.93,0.755,1.686,1.687,1.686h10.125c0.936,0.005,1.688-0.754,1.688-1.686l0,0
				V423.64c0-0.449-0.187-0.883-0.5-1.197v0.002H1292L1292,422.445z M1291.205,423.243c0.072,0.07,0.125,0.16,0.146,0.263h-3.354
				v-3.354c0.101,0.021,0.188,0.07,0.261,0.146L1291.205,423.243z M1290.807,435.878h-10.12c-0.31-0.002-0.561-0.252-0.562-0.563
				V420.69c0.001-0.313,0.252-0.563,0.562-0.563h6.187v3.651c-0.002,0.465,0.375,0.846,0.84,0.846c0.002,0,0.003,0,0.005,0h3.655
				v10.687c-0.002,0.313-0.254,0.563-0.563,0.563L1290.807,435.878z M1286.701,427.693l1.039,1.039
				c0.063,0.063,0.063,0.158,0.004,0.223c-0.002,0-0.002,0.002-0.004,0.002l-3.946,3.953l-1.058,0.148
				c-0.174,0.021-0.334-0.098-0.359-0.271c-0.004-0.026-0.004-0.061,0-0.088l0.151-1.061l3.952-3.949
				c0.06-0.063,0.161-0.063,0.222-0.004c0,0.002,0.002,0.004,0.002,0.004L1286.701,427.693L1286.701,427.693z M1288.963,427.734
				l-0.574,0.574c-0.061,0.063-0.16,0.063-0.223,0.004c-0.002,0-0.002-0.004-0.004-0.004l-1.039-1.041
				c-0.063-0.059-0.063-0.156-0.004-0.221c0.002-0.002,0.002-0.002,0.004-0.004l0.576-0.576c0.203-0.205,0.535-0.207,0.74-0.004
				c0.002,0.002,0.002,0.004,0.006,0.004l0.52,0.521c0.207,0.203,0.211,0.535,0.008,0.742c-0.002,0-0.002,0.002-0.004,0.004
				L1288.963,427.734L1288.963,427.734z"/>
			<rect id="Rectangle_4615" x="1274" y="415.997" fill="none" width="24" height="24"/>
		</g>
		<g id="Symbol_73_2" transform="translate(-1196 720)">
			<path id="upload" fill="#333333" d="M1214.891,334.187c0,0.389-0.313,0.699-0.699,0.699c-0.385,0-0.692-0.313-0.692-0.699
				c0-0.385,0.313-0.697,0.692-0.697l0,0C1214.576,333.49,1214.889,333.802,1214.891,334.187z M1211.938,333.488
				c-0.387,0-0.692,0.313-0.692,0.699s0.313,0.697,0.692,0.697c0.394,0,0.701-0.313,0.701-0.697l0,0
				c-0.002-0.389-0.313-0.701-0.701-0.703V333.488z M1217,331.8v3.653c-0.002,0.854-0.693,1.543-1.547,1.543h-14.907
				c-0.854,0-1.547-0.688-1.547-1.547l0,0V331.8c-0.001-0.854,0.689-1.549,1.544-1.554c0.001,0,0.002,0,0.003,0h4.359v-3.487h-1.854
				c-0.778-0.002-1.406-0.638-1.404-1.412c0.001-0.371,0.148-0.728,0.409-0.986l4.946-4.947c0.55-0.549,1.44-0.549,1.99,0
				l4.945,4.945c0.549,0.551,0.549,1.439-0.006,1.988c-0.269,0.264-0.619,0.41-0.988,0.41h-1.854v3.492h4.358
				c0.854,0,1.547,0.69,1.547,1.547C1217,331.798,1217,331.798,1217,331.8z M1206.031,325.634v6.584
				c0.001,0.156,0.126,0.281,0.281,0.281h3.375c0.147,0,0.272-0.125,0.273-0.281v-6.584h2.979c0.154,0,0.281-0.129,0.281-0.285
				c-0.002-0.072-0.029-0.146-0.082-0.195l-4.945-4.945c-0.11-0.108-0.289-0.108-0.399-0.002l-0.001,0.002l-4.943,4.945
				c-0.11,0.109-0.109,0.291,0.002,0.398c0.053,0.055,0.124,0.082,0.198,0.082H1206.031z M1215.875,331.8
				c0-0.23-0.189-0.422-0.422-0.422h-4.359v0.844c0,0.772-0.629,1.406-1.406,1.406l0,0h-3.375c-0.776,0-1.406-0.634-1.406-1.406l0,0
				v-0.844h-4.36c-0.233,0-0.421,0.188-0.422,0.422v3.653c0,0.229,0.189,0.423,0.422,0.425h14.907
				c0.231-0.002,0.422-0.188,0.422-0.425L1215.875,331.8L1215.875,331.8z"/>
			<rect id="Rectangle_4607" x="1196" y="315.997" fill="none" width="24" height="24"/>
		</g>
		<g id="Symbol_72_5" transform="translate(10730 4326)">
			<path id="file-times" fill="#FF0014" d="M-10715.145-3243.053c0.189,0.188,0.189,0.496,0,0.688l0,0l-0.23,0.229
				c-0.189,0.188-0.496,0.188-0.686,0l0,0l-1.938-1.946l-1.941,1.94c-0.189,0.188-0.496,0.188-0.686,0l0,0l-0.23-0.229
				c-0.189-0.188-0.189-0.496,0-0.688l0,0l1.941-1.938l-1.941-1.939c-0.189-0.188-0.189-0.496-0.002-0.688h0.002l0.229-0.229
				c0.188-0.188,0.496-0.188,0.686,0l0,0l1.941,1.938l1.941-1.938c0.189-0.188,0.496-0.188,0.686,0l0,0l0.229,0.229
				c0.189,0.188,0.189,0.496,0,0.688l0,0l-1.943,1.945L-10715.145-3243.053z"/>
			<path id="file-times-2" fill="#FF0014" d="M-10712-3251.555l-2.945-2.945c-0.316-0.315-0.744-0.498-1.193-0.5h-7.174
				c-0.932,0.004-1.686,0.763-1.686,1.691v14.621c0,0.932,0.754,1.688,1.686,1.688h10.123c0.932,0.002,1.689-0.754,1.689-1.686
				c0-0.002,0-0.002,0-0.002v-11.674c0-0.449-0.18-0.883-0.5-1.199V-3251.555z M-10712.793-3250.755
				c0.072,0.068,0.123,0.158,0.148,0.261h-3.354v-3.354c0.1,0.021,0.189,0.07,0.26,0.146L-10712.793-3250.755z M-10713.193-3238.122
				h-10.119c-0.309-0.002-0.561-0.252-0.561-0.564v-14.625c0-0.313,0.252-0.563,0.561-0.563h6.186v3.651
				c0,0.468,0.375,0.847,0.84,0.847c0.002,0,0.004,0,0.004,0h3.656v10.686c0,0.314-0.252,0.564-0.563,0.564L-10713.193-3238.122z"/>
			<rect id="Rectangle_4606" x="-10730" y="-3258.001" fill="none" width="24" height="24"/>
		</g>
		<g id="Symbol_69_2" transform="translate(-1211 934)">
			<rect id="Rectangle_4582" x="1211" y="165.997" fill="none" width="24" height="24"/>
			<g id="logout" transform="translate(1213.986 137)">
				<g id="Group_5724" transform="translate(0.014)">
					<g id="Group_5723" transform="translate(0)">
						<path id="Path_7223" fill="#333333" d="M17.941,39.962c-0.037-0.095-0.094-0.177-0.162-0.244l-2.25-2.25
							c-0.303-0.281-0.777-0.269-1.063,0.039c-0.271,0.287-0.271,0.731,0,1.021l0.974,0.972H11.25c-0.414,0-0.75,0.339-0.75,0.75
							c0,0.414,0.336,0.75,0.75,0.75h4.189l-0.975,0.971c-0.299,0.289-0.307,0.771-0.021,1.063c0.287,0.299,0.768,0.31,1.063,0.021
							c0.013-0.008,0.019-0.017,0.021-0.021l2.248-2.248c0.07-0.067,0.127-0.151,0.164-0.246
							C18.018,40.351,18.018,40.146,17.941,39.962z"/>
						<path id="Path_7224" fill="#333333" d="M12.75,42.497c-0.414,0-0.75,0.339-0.75,0.75v3.75H9v-12
							c0-0.327-0.218-0.62-0.535-0.717L5.86,33.497H12v3.75c0,0.414,0.336,0.75,0.75,0.75s0.75-0.336,0.75-0.75v-4.5
							c0-0.412-0.336-0.75-0.75-0.75h-12c-0.026,0.006-0.052,0.01-0.078,0.016c-0.112,0.014-0.221,0.053-0.317,0.109
							c-0.018,0.014-0.038,0.014-0.053,0.025c-0.016,0.01-0.009,0.012-0.016,0.016c-0.083,0.063-0.15,0.146-0.2,0.234
							c-0.007,0.022-0.014,0.044-0.02,0.065C0.04,32.521,0.02,32.577,0.008,32.64c-0.001,0.021-0.001,0.043,0,0.063
							C0.01,32.72,0,32.734,0,32.747v15c0,0.355,0.25,0.664,0.6,0.734l7.5,1.5c0.049,0.01,0.1,0.016,0.15,0.016
							c0.414,0,0.75-0.336,0.75-0.75v-0.75h3.75c0.414,0,0.75-0.336,0.75-0.75l0,0v-4.5C13.5,42.835,13.164,42.497,12.75,42.497z"/>
					</g>
				</g>
			</g>
		</g>
		<g id="Symbol_68_2" transform="translate(-1197 995)">
			<rect id="Rectangle_4581" x="1197" y="136.997" fill="none" width="24" height="24.002"/>
			<path id="key" fill="#333333" d="M1211.813,141.122c2.797,0.005,5.063,2.271,5.063,5.066s-2.271,5.063-5.063,5.063
				c-0.646,0-1.281-0.125-1.885-0.365l-1.488,1.485h-1.687v2.252h-2.25v2.25h-3.375v-2.813l5.988-5.988
				c-1.041-2.598,0.221-5.545,2.818-6.586C1210.529,141.247,1211.168,141.122,1211.813,141.122 M1211.813,139.997
				c-3.417,0.005-6.188,2.777-6.188,6.197c0,0.527,0.069,1.062,0.204,1.568l-5.582,5.582c-0.159,0.158-0.248,0.375-0.247,0.602
				v3.211c0.001,0.467,0.379,0.842,0.844,0.842h3.938c0.466,0,0.844-0.379,0.844-0.846v-1.404h1.406
				c0.466,0,0.844-0.379,0.844-0.846v-1.404h0.679c0.225,0.003,0.441-0.09,0.6-0.245l1.083-1.082
				c3.306,0.87,6.688-1.103,7.563-4.404c0.874-3.303-1.1-6.688-4.402-7.563C1212.879,140.068,1212.346,139.997,1211.813,139.997
				L1211.813,139.997z M1213.5,143.8c0.387,0,0.699,0.313,0.699,0.696c0,0.387-0.313,0.701-0.699,0.701s-0.699-0.313-0.699-0.701
				l0,0C1212.801,144.113,1213.113,143.8,1213.5,143.8 M1213.5,142.816c-0.932,0-1.688,0.754-1.689,1.688
				c0,0.932,0.756,1.688,1.688,1.688s1.688-0.756,1.688-1.688c0-0.002,0-0.002,0-0.005c0-0.934-0.756-1.688-1.688-1.688l0,0
				L1213.5,142.816L1213.5,142.816z"/>
		</g>
		<g id="Symbol_78_2" transform="translate(-861 860)">
			<circle id="Ellipse_1544" fill="#F84856" cx="873" cy="315.999" r="9"/>
			<path id="Path_22095" fill="#FFFFFF" d="M873.16,320.71c-0.309,0.021-0.616-0.063-0.87-0.238
				c-0.202-0.18-0.309-0.441-0.289-0.713c-0.019-0.271,0.089-0.537,0.293-0.717c0.252-0.181,0.558-0.265,0.866-0.24
				c0.305-0.021,0.607,0.063,0.855,0.235c0.195,0.187,0.307,0.447,0.281,0.722c0.021,0.271-0.084,0.535-0.277,0.717
				C873.768,320.652,873.463,320.734,873.16,320.71z M872.569,317.448l-0.384-4.633l-0.019-0.27
				c-0.021-0.275-0.032-0.457-0.032-0.549c-0.027-0.275,0.059-0.558,0.238-0.771c0.223-0.176,0.505-0.258,0.787-0.229
				c0.278-0.023,0.556,0.059,0.774,0.231c0.176,0.215,0.262,0.484,0.229,0.771c0,0.122-0.016,0.345-0.037,0.665
				c-0.004,0.065-0.01,0.116-0.016,0.151l-0.397,4.627h-1.146L872.569,317.448L872.569,317.448z"/>
			<rect id="Rectangle_4621" x="861" y="303.999" fill="none" width="24" height="24"/>
		</g>
		<g id="Symbol_79_2" transform="translate(-750 965)">
			<g id="edit-2" transform="translate(745.729 202)">
				<path id="Path_22096" fill="#FF4F06" d="M24.511,38.972l-1,1l-2.801-2.801l1-1c0.271-0.313,0.742-0.354,1.061-0.086l1.83,1.823
					C24.865,38.23,24.826,38.7,24.511,38.972z M20.246,37.646l2.799,2.801l-6.667,6.668c-0.064,0.066-0.145,0.119-0.235,0.146
					c-0.014,0.008-0.028,0.021-0.042,0.021l-3.48,1.105c-0.122,0.049-0.262-0.008-0.312-0.131c-0.023-0.062-0.023-0.123,0-0.183
					l1.109-3.479c0.005-0.017,0.011-0.023,0.017-0.041c0.027-0.09,0.077-0.172,0.146-0.23c0,0,0.808-0.791,1.276-1.264
					c0.468-0.469,0.6-0.609,0.6-0.609L20.246,37.646z M15.514,46.894l-1.721-1.721l-0.462,1.446l0.734,0.734L15.514,46.894z
					 M20.138,38.757c-0.1-0.103-0.26-0.103-0.358,0l0,0l-5.2,5.196c-0.099,0.103-0.1,0.263,0,0.359c0.099,0.1,0.259,0.1,0.358,0
					l5.201-5.199C20.236,39.017,20.236,38.857,20.138,38.757z M19.824,48.656c0,0.188-0.152,0.336-0.338,0.336h-6.133l-0.554,0.181
					c-0.11,0.032-0.225,0.053-0.34,0.053c-0.238,0-0.47-0.082-0.656-0.229H8.619c-0.186,0-0.337-0.149-0.337-0.338V34.499
					c0-0.188,0.151-0.338,0.337-0.338h1.264v0.537c0,0.188,0.151,0.336,0.337,0.336c0.186,0,0.336-0.147,0.337-0.336v-0.539h1.937
					v0.539c0,0.188,0.151,0.336,0.337,0.336s0.337-0.147,0.337-0.336v-0.539h1.685v0.539c0,0.188,0.151,0.336,0.337,0.336
					s0.336-0.147,0.336-0.336v-0.539h1.854v0.539c0,0.188,0.152,0.336,0.339,0.336c0.186,0,0.336-0.147,0.336-0.336v-0.539h1.433
					c0.188,0,0.338,0.15,0.338,0.34l0,0v2.334l0.354-0.354l0.657-0.658v-1.322c-0.002-0.743-0.604-1.35-1.354-1.35H18.05v-0.813
					c0.005-0.188-0.147-0.338-0.334-0.338s-0.336,0.148-0.338,0.337c0,0.002,0,0.002,0,0.002v0.813h-1.854v-0.813
					c0.001-0.188-0.15-0.338-0.336-0.338s-0.337,0.148-0.337,0.337c0,0.002,0,0.002,0,0.002v0.813h-1.685v-0.813
					c0-0.188-0.149-0.338-0.336-0.338c-0.186,0-0.337,0.148-0.337,0.337c0,0.002,0,0.002,0,0.002v0.813h-1.937v-0.813
					c-0.001-0.188-0.151-0.338-0.337-0.338c-0.186,0-0.336,0.149-0.336,0.336c0,0.002,0,0.002,0,0.002v0.813H8.62
					c-0.745,0-1.349,0.604-1.349,1.35v14.15c0.001,0.745,0.604,1.35,1.349,1.35h10.867c0.743,0,1.349-0.604,1.349-1.349v-4.906
					l-1.01,1.013L19.824,48.656L19.824,48.656L19.824,48.656z M17.191,37.189H10.6c-0.171,0-0.309,0.139-0.309,0.309
					c0,0.175,0.138,0.312,0.309,0.312h6.593c0.171,0,0.309-0.137,0.309-0.312c0-0.17-0.138-0.309-0.309-0.309H17.191z
					 M17.191,39.681H10.6c-0.171,0-0.309,0.141-0.31,0.311c0,0.17,0.138,0.312,0.309,0.312c0,0,0,0,0.001,0h6.593
					c0.171,0,0.309-0.142,0.309-0.312s-0.138-0.311-0.309-0.311H17.191z"/>
			</g>
			<g id="edit-3" transform="translate(745.729 202)">
				<path id="Path_22096-2" fill="#333333" d="M19.824,48.652c0,0.188-0.152,0.338-0.338,0.338h-6.133l-0.554,0.176
					c-0.11,0.035-0.225,0.056-0.34,0.056c-0.238,0-0.47-0.08-0.656-0.229H8.619c-0.186,0-0.337-0.147-0.337-0.336V34.499
					c0-0.188,0.151-0.338,0.337-0.338h1.264v0.537c0,0.188,0.151,0.336,0.337,0.336c0.186,0,0.336-0.147,0.337-0.336v-0.539h1.937
					v0.539c0,0.188,0.151,0.336,0.337,0.336s0.337-0.147,0.337-0.336v-0.539h1.685v0.539c0,0.188,0.151,0.336,0.337,0.336
					s0.336-0.147,0.336-0.336v-0.539h1.854v0.539c0,0.188,0.152,0.336,0.339,0.336c0.186,0,0.336-0.147,0.336-0.336v-0.539h1.433
					c0.188,0,0.338,0.15,0.338,0.34l0,0v2.334l0.354-0.354l0.657-0.658v-1.322c-0.002-0.743-0.604-1.35-1.354-1.35H18.05v-0.813
					c0.005-0.188-0.147-0.338-0.334-0.338s-0.336,0.148-0.338,0.337c0,0.002,0,0.002,0,0.002v0.813h-1.854v-0.813
					c0.001-0.188-0.15-0.338-0.336-0.338s-0.337,0.148-0.337,0.337c0,0.002,0,0.002,0,0.002v0.813h-1.685v-0.813
					c0-0.188-0.149-0.338-0.336-0.338c-0.186,0-0.337,0.148-0.337,0.337c0,0.002,0,0.002,0,0.002v0.813h-1.937v-0.813
					c-0.001-0.188-0.151-0.338-0.337-0.338c-0.186,0-0.336,0.149-0.336,0.336c0,0.002,0,0.002,0,0.002v0.813H8.62
					c-0.745,0-1.349,0.604-1.349,1.35v14.15c0.001,0.745,0.604,1.35,1.349,1.35h10.867c0.743,0,1.349-0.604,1.349-1.349v-4.906
					l-1.01,1.013v3.897l0,0L19.824,48.652L19.824,48.652z M17.191,37.189H10.6c-0.171,0-0.309,0.139-0.309,0.309
					c0,0.175,0.138,0.312,0.309,0.312h6.593c0.171,0,0.309-0.137,0.309-0.312c0-0.17-0.138-0.309-0.309-0.309H17.191z
					 M17.191,39.681H10.6c-0.171,0-0.309,0.141-0.31,0.311c0,0.17,0.138,0.312,0.309,0.312c0,0,0,0,0.001,0h6.593
					c0.171,0,0.309-0.142,0.309-0.312s-0.138-0.311-0.309-0.311H17.191z"/>
			</g>
			<rect id="Rectangle_4629" x="750" y="230.999" fill="none" width="24" height="24"/>
		</g>
		<g id="Symbol_80_2" transform="translate(6751 5432)">
			<rect id="Rectangle_4551-3" x="-6751" y="-4204.001" fill="none" width="24" height="24"/>
			<path id="redo-2" fill="#FFFFFF" d="M-6731.387-4200.001h-0.322c-0.215,0-0.389,0.174-0.389,0.388v3.569
				c-2.232-3.813-7.134-5.096-10.946-2.858c-3.813,2.231-5.092,7.135-2.859,10.946c2.233,3.811,7.134,5.092,10.945,2.855
				c0.472-0.273,0.912-0.602,1.315-0.963c0.16-0.146,0.174-0.393,0.021-0.549c-0.004-0.004-0.008-0.01-0.02-0.018l-0.228-0.229
				c-0.146-0.146-0.379-0.148-0.533-0.018c-2.834,2.547-7.198,2.313-9.744-0.521c-2.547-2.834-2.313-7.191,0.522-9.744
				c2.835-2.545,7.198-2.313,9.745,0.521c0.396,0.438,0.729,0.926,1,1.449h-3.688c-0.215,0-0.389,0.174-0.389,0.389v0.32
				c0,0.215,0.174,0.391,0.389,0.391h5.16c0.215,0,0.389-0.172,0.389-0.389c0-0.002,0-0.002,0-0.002v-5.162
				C-6731-4199.827-6731.174-4200.001-6731.387-4200.001z"/>
		</g>
		<g id="Symbol_97_1">
			<g id="Group_27" transform="translate(3 1231)">
				
					<circle id="Ellipse_3" fill="none" stroke="#333333" stroke-width="2" stroke-miterlimit="10" cx="6.775" cy="38.774" r="5.775"/>
				
					<line id="Line_2" fill="none" stroke="#333333" stroke-width="2" stroke-miterlimit="10" x1="10.857" y1="42.854" x2="17" y2="48.999"/>
			</g>
			<rect id="Rectangle_4661" y="1259.999" fill="none" width="24" height="24"/>
		</g>
		<g id="Symbol_84_1">
			<path id="file-signature" opacity="0.6" fill="#333333" enable-background="new    " d="M20.525,1300.249l-0.773-0.774
				c-0.633-0.633-1.656-0.633-2.288,0c0,0,0,0-0.001,0L15,1301.929v-1.801c0-0.398-0.158-0.779-0.439-1.064l-2.622-2.625
				c-0.281-0.279-0.662-0.438-1.059-0.439H4.5c-0.829,0-1.5,0.675-1.5,1.5v13c0,0.828,0.671,1.5,1.5,1.5l0,0h9
				c0.828,0,1.5-0.672,1.5-1.5l0,0v-2.518c0.201-0.143,0.393-0.299,0.568-0.469l4.957-4.979
				C21.158,1301.905,21.158,1300.882,20.525,1300.249L20.525,1300.249z M11,1297.017c0.087,0.021,0.167,0.068,0.231,0.135
				l2.621,2.617c0.064,0.063,0.111,0.145,0.133,0.229H11V1297.017L11,1297.017z M14,1310.499c0,0.275-0.225,0.5-0.5,0.5h-9
				c-0.276,0-0.5-0.225-0.5-0.5v-13c0-0.274,0.224-0.5,0.5-0.5H10v3.252c-0.001,0.41,0.332,0.748,0.744,0.748
				c0.002,0,0.004,0,0.007,0H14v1.925l-1.515,1.506c-0.946,0.944-1.479,2.229-1.485,3.563c-0.127-0.01-0.239-0.086-0.293-0.199
				c-0.375-0.678-1.227-0.921-1.903-0.548c-0.056,0.03-0.109,0.063-0.16,0.104l-0.434-1.299c-0.132-0.396-0.558-0.604-0.951-0.475
				c-0.223,0.071-0.398,0.25-0.473,0.475l-0.57,1.707c-0.045,0.146-0.178,0.24-0.328,0.24H5.5c-0.276,0-0.5,0.227-0.5,0.5
				c0,0.274,0.224,0.5,0.5,0.5h0.388c0.581,0,1.097-0.37,1.28-0.922l0.332-1l0.525,1.577c0.087,0.263,0.371,0.4,0.632,0.314
				c0.126-0.043,0.23-0.135,0.29-0.252l0.239-0.479c0.086-0.18,0.296-0.244,0.469-0.156c0.072,0.033,0.129,0.097,0.163,0.168
				c0.223,0.449,0.679,0.738,1.182,0.748h1c0.688-0.006,1.37-0.146,2-0.426V1310.499L14,1310.499z M14.859,1306.81
				c-0.758,0.764-1.785,1.189-2.859,1.189l0,0c0-1.073,0.428-2.104,1.189-2.858l3.768-3.746l1.65,1.65l-3.748,3.771V1306.81z
				 M19.818,1301.831l-0.66,0.66l-1.65-1.647l0.662-0.662c0.242-0.234,0.635-0.234,0.875,0l0.775,0.774
				c0.24,0.24,0.24,0.634,0,0.875H19.818L19.818,1301.831z"/>
			<rect id="Rectangle_4517" y="1291.999" fill="none" width="24" height="24"/>
		</g>
		<g id="MISA_support_" transform="translate(0 6)">
			<rect id="Rectangle_4551-4" y="1317.999" fill="none" width="24" height="24"/>
			<g id="Group_13768" transform="translate(-1870.4 -515.753)">
				<path id="Path_22182" fill="none" stroke="#FFFFFF" stroke-miterlimit="10" d="M1887.537,1844.813
					c0,3.764-3.479,6.813-7.768,6.813c-0.898-0.034-1.79-0.174-2.657-0.405c-0.613-0.14-3.256,1.856-3.884,1.5
					c-0.548-0.313,1.908-2.185,1.032-3.103c-1.35-1.244-2.161-2.969-2.259-4.803c0-3.764,3.478-6.813,7.768-6.813
					C1884.058,1838.004,1887.537,1841.051,1887.537,1844.813z"/>
				<path id="Path_22183" fill="#FFFFFF" d="M1890.105,1843.959c0.006,0.03,0.828,4-1.752,6.715c-2.654,2.793-4.348,2.856-6.6,3.541
					c0.967,0.34,1.982,0.521,3.006,0.545c1.199,0.067,2.396-0.123,3.52-0.564c1.219,0.373,2.482,0.564,3.756,0.566
					c-0.311-0.285-0.584-0.604-0.818-0.953c-0.201-0.332-0.35-0.697-0.428-1.084c1.199-0.979,1.92-2.43,1.979-3.979
					C1892.74,1846.805,1891.742,1845.006,1890.105,1843.959z"/>
				<text transform="matrix(1 0 0 1 1877.4181 1848.2842)" fill="#FFFFFF" font-family="'SegoeUI'" font-size="9">?</text>
			</g>
		</g>
		<rect id="Rectangle_8836" y="1345.999" fill="none" width="24" height="24"/>
		<g id="eye_no_" transform="translate(0 -16)">
			<g id="Group_20231" transform="translate(929.312 13978)">
				<path id="Path_11890" fill="none" stroke="#AFAFAF" stroke-width="1.029" stroke-miterlimit="10" d="M-910.271-12596.003
					l1.459,1.59c0.178,0.191,0.18,0.484,0.007,0.68l-1.435,1.613c-1.732,1.947-4.207,3.07-6.813,3.09l-0.814,0.008
					c-2.605,0.021-5.099-1.061-6.862-2.98l-1.441-1.57c-0.188-0.203-0.19-0.516-0.006-0.721l1.416-1.592
					c1.732-1.947,4.207-3.07,6.813-3.09l0.814-0.008C-914.527-12599.005-912.035-12597.921-910.271-12596.003z"/>
				<circle id="Ellipse_1787" fill="none" stroke="#AFAFAF" stroke-miterlimit="10" cx="-917.5" cy="-12594.003" r="3"/>
				<path id="Path_11891" fill="none" stroke="#AFAFAF" stroke-linecap="round" stroke-miterlimit="10" d="M-918.923-12593.532
					c-0.259-0.787,0.169-1.635,0.956-1.895c0.35-0.115,0.73-0.098,1.068,0.051"/>
				
					<line id="Line_904" fill="none" stroke="#FFFFFF" stroke-width="2" stroke-linecap="round" stroke-miterlimit="10" x1="-914.5" y1="-12601.003" x2="-920.5" y2="-12587.003"/>
				
					<line id="Line_905" fill="none" stroke="#AFAFAF" stroke-linecap="round" stroke-miterlimit="10" x1="-913.5" y1="-12601.003" x2="-919.5" y2="-12587.003"/>
			</g>
			<rect id="Rectangle_8837" y="1371.999" fill="#FFFFFF" fill-opacity="0" width="24" height="24"/>
		</g>
		<g id="eye-2" transform="translate(0 18)">
			<g id="Group_20231-2" transform="translate(929.312 13976)">
				<path id="Path_11890-2" fill="none" stroke="#AFAFAF" stroke-width="1.029" stroke-miterlimit="10" d="M-910.271-12596.003
					l1.459,1.59c0.178,0.191,0.18,0.484,0.007,0.68l-1.435,1.613c-1.732,1.947-4.207,3.07-6.813,3.09l-0.814,0.008
					c-2.605,0.021-5.099-1.061-6.862-2.98l-1.441-1.57c-0.188-0.203-0.19-0.516-0.006-0.721l1.416-1.592
					c1.732-1.947,4.207-3.07,6.813-3.09l0.814-0.008C-914.527-12599.005-912.035-12597.921-910.271-12596.003z"/>
				<circle id="Ellipse_1787-2" fill="none" stroke="#AFAFAF" stroke-miterlimit="10" cx="-917.5" cy="-12594.003" r="3"/>
				<path id="Path_11891-2" fill="none" stroke="#AFAFAF" stroke-linecap="round" stroke-miterlimit="10" d="M-918.923-12593.532
					c-0.259-0.787,0.169-1.635,0.956-1.895c0.35-0.115,0.73-0.098,1.068,0.051"/>
			</g>
			<rect id="Rectangle_8837-2" y="1369.999" fill="#FFFFFF" fill-opacity="0" width="24" height="24"/>
		</g>
		<g id="Symbol_111_1" transform="translate(0 22)">
			<g id="Group_20231-3" transform="translate(929.312 14004)">
				<path id="Path_11890-3" fill="none" stroke="#333333" stroke-width="1.029" stroke-miterlimit="10" d="M-910.271-12596.003
					l1.459,1.59c0.178,0.191,0.18,0.484,0.007,0.68l-1.435,1.613c-1.732,1.947-4.207,3.07-6.813,3.09l-0.814,0.008
					c-2.605,0.021-5.099-1.061-6.862-2.98l-1.441-1.57c-0.188-0.203-0.19-0.516-0.006-0.721l1.416-1.592
					c1.732-1.947,4.207-3.07,6.813-3.09l0.814-0.008C-914.527-12599.005-912.035-12597.921-910.271-12596.003z"/>
				<circle id="Ellipse_1787-3" fill="none" stroke="#333333" stroke-miterlimit="10" cx="-917.5" cy="-12594.003" r="3"/>
				<path id="Path_11891-3" fill="none" stroke="#333333" stroke-linecap="round" stroke-miterlimit="10" d="M-918.923-12593.532
					c-0.259-0.787,0.169-1.635,0.956-1.895c0.35-0.115,0.73-0.098,1.068,0.051"/>
				
					<line id="Line_904-2" fill="none" stroke="#FFFFFF" stroke-width="2" stroke-linecap="round" stroke-miterlimit="10" x1="-914.5" y1="-12601.003" x2="-920.5" y2="-12587.003"/>
				
					<line id="Line_905-2" fill="none" stroke="#333333" stroke-linecap="round" stroke-miterlimit="10" x1="-913.5" y1="-12601.003" x2="-919.5" y2="-12587.003"/>
			</g>
			<rect id="Rectangle_8837-3" y="1397.999" fill="#FFFFFF" fill-opacity="0" width="24" height="24"/>
		</g>
		<g id="Symbol_115_1">
			<g id="Group_20227" transform="translate(-38 1415.946)">
				<g id="Group_9678">
					<path id="Path_11468" fill="#757575" d="M47.5,48.998c-1.933,0-3.5-1.565-3.5-3.5c0-1.938,1.567-3.5,3.5-3.5s3.5,1.563,3.5,3.5
						C51,47.433,49.433,48.998,47.5,48.998L47.5,48.998z M47.5,42.998c-1.381,0-2.5,1.119-2.5,2.5s1.119,2.5,2.5,2.5
						s2.5-1.119,2.5-2.5S48.881,42.998,47.5,42.998z"/>
				</g>
				<g id="Group_9680">
					<g id="Group_9679">
						<path id="Path_11469" fill="#757575" d="M47.5,56.998c-3.165,0-7.5,0-7.5-3.5c0-2.021,1.495-3.863,3.9-4.828l0.3-0.114
							l0.232,0.217c1.742,1.582,4.4,1.582,6.143,0l0.231-0.217l0.299,0.114c2.399,0.965,3.896,2.813,3.896,4.828
							C55,56.998,50.664,56.998,47.5,56.998z M43.993,49.719C42.139,50.547,41,51.978,41,53.498c0,2.107,2.189,2.5,6.5,2.5
							c4.311,0,6.5-0.393,6.5-2.5c0-1.521-1.139-2.951-2.991-3.779C48.962,51.373,46.038,51.373,43.993,49.719z"/>
					</g>
				</g>
				<g id="Group_9682">
					<g id="Group_9681">
						<path id="Path_11470" fill="#757575" d="M54.861,48.935l-2.637-2.084l0.551-0.701l1.52,1.201l0.285-1.304h3.17
							c0.718-0.002,1.298-0.582,1.301-1.299v-3.5c-0.003-0.717-0.583-1.297-1.301-1.303h-6.5c-0.717,0.006-1.296,0.586-1.299,1.303
							h-0.892c0-1.215,0.985-2.201,2.2-2.201l0,0h6.5c1.216,0,2.2,0.986,2.2,2.201l0,0v3.5c0,1.215-0.984,2.197-2.2,2.197l0,0
							h-2.458L54.861,48.935z"/>
					</g>
				</g>
				<g id="Group_9686">
					<g id="Group_9683">
						<circle id="Ellipse_1764" fill="#757575" cx="52.5" cy="43.498" r="0.5"/>
					</g>
					<g id="Group_9684">
						<circle id="Ellipse_1765" fill="#757575" cx="54.5" cy="43.498" r="0.5"/>
					</g>
					<g id="Group_9685">
						<circle id="Ellipse_1766" fill="#757575" cx="56.5" cy="43.498" r="0.5"/>
					</g>
				</g>
			</g>
			<rect id="Rectangle_7216" y="1451.999" fill="#FFFFFF" fill-opacity="0" width="24" height="24"/>
		</g>
		<g id="Symbol_116_2">
			<path id="Path_27874" fill="none" stroke="#FFFFFF" stroke-width="1.5" stroke-linecap="round" stroke-linejoin="round" d="
				M16.5,1492.893l-5,6.188l-5-6.188"/>
			<g id="Rectangle_7218" transform="translate(0 1452)" opacity="0">
				<rect y="31.999" fill="none" width="24" height="24"/>
			</g>
		</g>
	</g>
	<g>
		<g id="Symbol_52_2_1_" transform="translate(-1329 -320)">
			<rect id="Rectangle_4550_1_" x="1329" y="1836.081" fill="none" width="24" height="24"/>
		</g>
		<g>
			<path fill="#333333" d="M5.769,1531.444c0.008-0.961,0.369-1.771,1.037-2.443c2.279-2.286,4.564-4.565,6.846-6.852
				c0.604-0.604,1.334-0.896,2.186-0.816c1.217,0.113,2.156,1.021,2.352,2.166c0.16,0.938-0.119,1.738-0.791,2.409
				c-1.918,1.916-3.838,3.832-5.75,5.755c-0.394,0.396-0.858,0.64-1.414,0.636c-0.707-0.009-1.275-0.313-1.646-0.934
				c-0.437-0.729-0.353-1.638,0.241-2.248c1.049-1.075,2.119-2.132,3.181-3.193c0.438-0.438,0.875-0.877,1.313-1.313
				c0.099-0.102,0.203-0.193,0.352-0.133c0.174,0.068,0.311,0.188,0.36,0.377c0.038,0.137-0.054,0.229-0.146,0.32
				c-0.471,0.471-0.938,0.938-1.399,1.399c-0.993,0.992-1.986,1.988-2.983,2.979c-0.328,0.323-0.458,0.707-0.332,1.15
				c0.225,0.791,1.213,1.059,1.799,0.479c0.887-0.875,1.759-1.763,2.643-2.644c1.075-1.076,2.147-2.155,3.231-3.229
				c0.354-0.348,0.563-0.76,0.582-1.244c0.047-0.957-0.605-1.729-1.445-1.9c-0.688-0.141-1.271,0.063-1.762,0.552
				c-1.498,1.498-2.999,2.993-4.497,4.489c-0.785,0.785-1.57,1.568-2.355,2.354c-0.402,0.401-0.664,0.879-0.761,1.438
				c-0.251,1.457,0.785,2.813,2.176,2.998c0.892,0.115,1.643-0.147,2.276-0.782c1.868-1.869,3.734-3.732,5.602-5.601
				c0.036-0.035,0.068-0.076,0.107-0.104c0.045-0.033,0.098-0.066,0.146-0.08c0.148-0.035,0.35,0.09,0.459,0.283
				c0.072,0.123,0.051,0.271-0.068,0.395c-0.271,0.275-0.547,0.551-0.817,0.822c-1.618,1.617-3.229,3.238-4.854,4.854
				c-0.701,0.697-1.547,1.07-2.544,1.052c-0.824-0.02-1.551-0.311-2.17-0.854c-0.582-0.514-0.943-1.152-1.09-1.912
				C5.795,1531.866,5.79,1531.653,5.769,1531.444z"/>
		</g>
	</g>
	<g>
		<g id="Symbol_52_2_3_" transform="translate(-1329 -320)">
			<rect id="Rectangle_4550_3_" x="1329" y="324" fill="none" width="24" height="24"/>
		</g>
		<g>
			<path fill="#333333" d="M5.978,23.583c0.379-0.524,0.746-1.036,1.112-1.543c1.383-1.918,2.766-3.836,4.145-5.756
				c0.076-0.105,0.144-0.146,0.283-0.134c0.455,0.058,0.832-0.229,0.907-0.657c0.069-0.402-0.181-0.802-0.581-0.914
				c-0.391-0.115-0.818,0.092-0.971,0.479c-0.109,0.279-0.064,0.545,0.107,0.803c-1.789,2.484-3.579,4.974-5.373,7.457
				c-0.315-0.434-0.126-0.989,0.367-1.17c0.073-0.024,0.156-0.098,0.183-0.168c0.627-1.606,1.102-3.262,1.32-4.979
				c0.135-1.064,0.153-2.131-0.091-3.189c-0.013-0.055,0.024-0.151,0.07-0.188c1.287-0.982,2.577-1.961,3.871-2.938
				c0.045-0.033,0.152-0.043,0.195-0.014c1.554,1.113,3.104,2.229,4.671,3.361c-0.125,0.368-0.25,0.741-0.377,1.112
				c-0.4,1.188-0.809,2.379-1.213,3.564c-0.023,0.065-0.104,0.166-0.162,0.172c-1.271,0.131-2.438,0.592-3.554,1.174
				C9.52,20.77,8.264,21.646,7.08,22.631c-0.061,0.053-0.101,0.16-0.105,0.244C6.953,23.391,6.498,23.729,5.978,23.583z"/>
			<path fill="#333333" d="M13.438,6.868c1.896,1.362,3.772,2.719,5.668,4.084c-0.729,0.631-1.437,1.243-2.162,1.875
				c-1.561-1.123-3.111-2.246-4.684-3.375C12.654,8.586,13.041,7.732,13.438,6.868z"/>
			<path fill="#333333" d="M11.688,24.202c2.18,0,4.354,0,6.531,0c0.072,0,0.146-0.002,0.215,0.004
				c0.209,0.021,0.357,0.178,0.367,0.385c0.01,0.188-0.121,0.367-0.314,0.41c-0.055,0.014-0.11,0.014-0.174,0.014
				c-4.418,0-8.835,0-13.252,0c-0.258,0-0.429-0.113-0.477-0.313c-0.058-0.235,0.1-0.461,0.341-0.494
				c0.078-0.013,0.156-0.006,0.234-0.006C7.333,24.202,9.511,24.202,11.688,24.202z"/>
			<path fill="#333333" d="M17.207,13.549c-0.076,0.102-0.117,0.215-0.189,0.236c-0.098,0.028-0.238,0.024-0.313-0.025
				c-0.302-0.188-0.572-0.402-0.854-0.604c-1.392-1-2.771-2-4.165-3c-0.041-0.026-0.082-0.063-0.125-0.094
				c-0.179-0.137-0.217-0.287-0.106-0.43c0.098-0.129,0.266-0.139,0.431-0.021c0.327,0.232,0.652,0.476,0.979,0.705
				c1.373,0.99,2.746,1.979,4.115,2.974C17.057,13.35,17.117,13.443,17.207,13.549z"/>
		</g>
	</g>
	<g>
		<g id="Symbol_52_2_2_" transform="translate(-1329 -320)">
			<rect id="Rectangle_4550_2_" x="1329" y="1868.081" fill="none" width="24" height="24"/>
		</g>
		<g>
			<g>
				<path fill="#333333" d="M12.069,1561.073c0,0.531-0.111,0.992-0.332,1.389c-0.239,0.418-0.592,0.732-1.056,0.945
					c-0.346,0.168-0.721,0.252-1.122,0.252c-0.353,0-0.699-0.068-1.037-0.211c-1.018-0.428-1.527-1.221-1.527-2.375v-1.895
					c0-1.178,0.512-1.971,1.536-2.381c0.347-0.137,0.69-0.201,1.028-0.201c0.35,0,0.697,0.072,1.042,0.221
					c0.978,0.428,1.468,1.215,1.468,2.359V1561.073z M10.332,1559.136c0-0.303-0.053-0.537-0.161-0.705
					c-0.135-0.203-0.347-0.305-0.638-0.305c-0.275,0-0.482,0.104-0.623,0.309c-0.117,0.178-0.175,0.41-0.175,0.701v1.982
					c0,0.293,0.058,0.527,0.175,0.705c0.137,0.205,0.345,0.311,0.623,0.311c0.291,0,0.503-0.104,0.638-0.307
					c0.108-0.17,0.161-0.404,0.161-0.709V1559.136z"/>
				<path fill="#333333" d="M14.439,1563.528v-5.342h-1.113v-1.463h2.852v6.805H14.439z"/>
			</g>
			<path fill="#333333" d="M12,1552.96c-3.933,0-7.121,3.188-7.121,7.119c0,3.935,3.188,7.121,7.121,7.121
				c3.934,0,7.121-3.188,7.121-7.121C19.121,1556.146,15.934,1552.96,12,1552.96z M5.939,1560.081c0-1.906,0.882-3.605,2.258-4.719
				l6.583,10.104c-0.834,0.432-1.776,0.676-2.778,0.676C8.653,1566.142,5.939,1563.429,5.939,1560.081z M15.895,1564.722
				l-6.565-10.08c0.806-0.396,1.712-0.621,2.672-0.621c3.349,0,6.062,2.713,6.062,6.063
				C18.061,1561.942,17.219,1563.61,15.895,1564.722z"/>
		</g>
	</g>
</g>
</svg>
