<svg xmlns="http://www.w3.org/2000/svg" xmlns:xlink="http://www.w3.org/1999/xlink" width="14" height="14" viewBox="0 0 14 14"><defs><style>.a{fill:#ff4d4d;}.b{clip-path:url(#a);}</style><clipPath id="a"><path class="a" d="M3.5,14a2.1,2.1,0,0,1-2.1-2.1V4.2H.7a.7.7,0,0,1,0-1.4H4.2V1.63A1.694,1.694,0,0,1,5.95,0h2.1A1.7,1.7,0,0,1,9.8,1.63V2.8h3.5a.7.7,0,0,1,0,1.4h-.7v7.7A2.1,2.1,0,0,1,10.5,14Z"/></clipPath></defs><path class="a" d="M10.5,14h-7a2.1,2.1,0,0,1-2.1-2.1V4.2H.7a.7.7,0,0,1,0-1.4H4.2V1.63A1.7,1.7,0,0,1,5.95,0h2.1A1.7,1.7,0,0,1,9.8,1.63V2.8h3.5a.7.7,0,0,1,0,1.4h-.7v7.7A2.1,2.1,0,0,1,10.5,14ZM2.8,4.2v7.7a.7.7,0,0,0,.7.7h7a.7.7,0,0,0,.7-.7V4.2ZM5.95,1.4c-.2,0-.35.121-.35.23V2.8H8.4V1.63c0-.109-.15-.23-.35-.23ZM9.1,10.5a.7.7,0,0,1-.7-.7V7A.7.7,0,0,1,9.8,7V9.8A.7.7,0,0,1,9.1,10.5Zm-4.2,0a.7.7,0,0,1-.7-.7V7A.7.7,0,0,1,5.6,7V9.8A.7.7,0,0,1,4.9,10.5Z" transform="translate(0 0)"/></svg>