<svg xmlns="http://www.w3.org/2000/svg" width="19.95" height="25.982" viewBox="0 0 19.95 25.982"><defs><style>.a{fill:#e9e9e0;opacity:0.55;}.b{fill:#d9d7ca;opacity:0.5;}.c{fill:#2b579a;}.d{fill:#fff;}</style></defs><g transform="translate(-475 -295)"><path class="a" d="M20.644,0H7.179C6.8,0,6.5.3,6.5.894V25.517a.7.7,0,0,0,.679.464H25.771a.7.7,0,0,0,.679-.464V6.021c0-.323-.043-.427-.119-.5l-5.4-5.4A.41.41,0,0,0,20.644,0Z" transform="translate(468.5 295)"/><path class="b" d="M37.5.151v5.5H43Z" transform="translate(451.882 294.919)"/><path class="c" d="M14.748,11.928H11.964a.464.464,0,0,1,0-.928h2.784a.464.464,0,1,1,0,.928Z" transform="translate(465.82 289.104)"/><path class="c" d="M16.14,16.928H11.964a.464.464,0,0,1,0-.928H16.14a.464.464,0,0,1,0,.928Z" transform="translate(465.82 286.423)"/><path class="c" d="M24.964,16.935a.459.459,0,1,1,.329-.135A.488.488,0,0,1,24.964,16.935Z" transform="translate(458.851 286.416)"/><path class="c" d="M32.676,16.928H28.964a.464.464,0,0,1,0-.928h3.712a.464.464,0,1,1,0,.928Z" transform="translate(456.707 286.423)"/><path class="c" d="M11.964,31.935a.465.465,0,1,1,.329-.793.479.479,0,0,1,.135.329.459.459,0,0,1-.464.464Z" transform="translate(465.82 278.377)"/><path class="c" d="M19.676,31.928H15.964a.464.464,0,0,1,0-.928h3.712a.464.464,0,1,1,0,.928Z" transform="translate(463.676 278.382)"/><path class="c" d="M41.892,16.928h-.928a.464.464,0,0,1,0-.928h.928a.464.464,0,1,1,0,.928Z" transform="translate(450.274 286.423)"/><path class="c" d="M22.171,21.928H11.964a.464.464,0,0,1,0-.928H22.171a.464.464,0,1,1,0,.928Z" transform="translate(465.82 283.743)"/><path class="c" d="M39.748,21.928H36.964a.464.464,0,0,1,0-.928h2.784a.464.464,0,1,1,0,.928Z" transform="translate(452.419 283.743)"/><path class="c" d="M13.82,26.928H11.964a.464.464,0,0,1,0-.928H13.82a.464.464,0,1,1,0,.928Z" transform="translate(465.82 281.063)"/><path class="c" d="M24.6,26.928h-4.64a.464.464,0,1,1,0-.928H24.6a.464.464,0,1,1,0,.928Z" transform="translate(461.531 281.063)"/><path class="c" d="M38.14,26.928H33.964a.464.464,0,1,1,0-.928H38.14a.464.464,0,0,1,0,.928Z" transform="translate(454.027 281.063)"/><path class="c" d="M25.771,46.887H7.179a.679.679,0,0,1-.679-.679V39H26.45v7.208A.679.679,0,0,1,25.771,46.887Z" transform="translate(468.5 274.095)"/><g transform="translate(476.744 314.839)"><path class="d" d="M19.14,45.131a3.434,3.434,0,0,1-.124.986,2.452,2.452,0,0,1-.314.685,1.613,1.613,0,0,1-.428.435,2.148,2.148,0,0,1-.46.238,1.9,1.9,0,0,1-.406.1,2.707,2.707,0,0,1-.272.021h-1.77V42.924h1.408a2.675,2.675,0,0,1,1.037.187,2.153,2.153,0,0,1,.742.5,2.043,2.043,0,0,1,.441.707A2.342,2.342,0,0,1,19.14,45.131Zm-2.258,1.909A1.26,1.26,0,0,0,18,46.546a2.511,2.511,0,0,0,.342-1.434,2.428,2.428,0,0,0-.07-.577,1.235,1.235,0,0,0-.27-.517,1.423,1.423,0,0,0-.542-.374,2.335,2.335,0,0,0-.888-.143h-.444v3.539h.755Z" transform="translate(-15.366 -42.848)"/><path class="d" d="M28.975,45.151a3.312,3.312,0,0,1-.149,1.04,2.121,2.121,0,0,1-.412.748,1.726,1.726,0,0,1-.615.451,2.027,2.027,0,0,1-1.541,0,1.726,1.726,0,0,1-.615-.451,2.125,2.125,0,0,1-.412-.748,3.7,3.7,0,0,1,0-2.077,2.115,2.115,0,0,1,.412-.745,1.763,1.763,0,0,1,.615-.454,1.988,1.988,0,0,1,1.541,0,1.763,1.763,0,0,1,.615.454,2.138,2.138,0,0,1,.412.745A3.294,3.294,0,0,1,28.975,45.151Zm-1.967,1.77a1.117,1.117,0,0,0,.447-.092,1,1,0,0,0,.38-.3,1.524,1.524,0,0,0,.263-.549,3.3,3.3,0,0,0,.1-.828,3.236,3.236,0,0,0-.1-.809,1.623,1.623,0,0,0-.254-.549.978.978,0,0,0-.368-.311,1.022,1.022,0,0,0-.435-.1,1.145,1.145,0,0,0-.447.089.958.958,0,0,0-.38.3,1.551,1.551,0,0,0-.263.549,3.237,3.237,0,0,0-.1.824,3.278,3.278,0,0,0,.1.812,1.59,1.59,0,0,0,.254.549,1.017,1.017,0,0,0,.368.311A1,1,0,0,0,27.009,46.921Z" transform="translate(-20.574 -42.76)"/><path class="d" d="M38.855,47.035a1.73,1.73,0,0,1-.59.38,1.954,1.954,0,0,1-.71.127,1.918,1.918,0,0,1-.771-.152,1.726,1.726,0,0,1-.615-.451,2.125,2.125,0,0,1-.412-.748,3.7,3.7,0,0,1,0-2.077,2.115,2.115,0,0,1,.412-.745,1.754,1.754,0,0,1,.618-.454,1.888,1.888,0,0,1,.767-.155,1.964,1.964,0,0,1,.71.127,1.733,1.733,0,0,1,.59.38l-.527.47a.962.962,0,0,0-.352-.266,1.021,1.021,0,0,0-.4-.083,1.145,1.145,0,0,0-.447.089.958.958,0,0,0-.38.3,1.551,1.551,0,0,0-.263.549,3.237,3.237,0,0,0-.1.824,3.278,3.278,0,0,0,.1.812,1.59,1.59,0,0,0,.254.549,1.017,1.017,0,0,0,.368.311.992.992,0,0,0,.435.1,1.114,1.114,0,0,0,.428-.083,1.006,1.006,0,0,0,.365-.266Z" transform="translate(-26.217 -42.76)"/></g><path class="d" d="M45.3,21.547l1.516-2.336-1.5-2.3h.98l1.057,1.7H47.4l1.073-1.7h.932l-1.555,2.32,1.528,2.316h-.957l-1.075-1.665H47.29L46.2,21.547Z" transform="translate(444.782 298.076)"/></g></svg>