<svg xmlns="http://www.w3.org/2000/svg" xmlns:xlink="http://www.w3.org/1999/xlink" width="14.222" height="16" viewBox="0 0 14.222 16"><defs><style>.a{fill:#222d32;}.b{clip-path:url(#a);}</style><clipPath id="a"><path class="a" d="M8.267,15.819,4.688,13.113a.888.888,0,0,1-.353-.708V9.494L.1,1.3A.888.888,0,0,1,.889,0H13.334a.889.889,0,0,1,.782,1.311L9.692,9.5v5.609a.888.888,0,0,1-1.425.708Z" transform="translate(0)"/></clipPath></defs><g transform="translate(-4 -4)"><path class="a" d="M8.8,16a.886.886,0,0,1-.536-.181L4.687,13.113a.892.892,0,0,1-.353-.708V9.494L.1,1.3A.888.888,0,0,1,.888,0H13.333a.889.889,0,0,1,.782,1.311L9.691,9.5v5.609a.881.881,0,0,1-.493.8A.9.9,0,0,1,8.8,16ZM2.349,1.778,6.013,8.87a.884.884,0,0,1,.1.408v2.684l1.8,1.363V9.278a.9.9,0,0,1,.107-.422l3.822-7.078Z" transform="translate(4 4)"/></g></svg>