<svg xmlns="http://www.w3.org/2000/svg" width="14.111" height="12" viewBox="0 0 14.111 12"><defs><style>.a{fill:#fff;}</style></defs><g transform="translate(-2.621 -3.497)"><g transform="translate(2.621 3.497)"><path class="a" d="M60.609,66.2c-.184.107-.308.175-.428.25-1.479.923-2.972,1.825-4.429,2.782a1.141,1.141,0,0,1-1.545,0,3.513,3.513,0,0,0-.443-.271c-.577.58-1.15,1.166-1.736,1.739a.707.707,0,0,1-1.14,0c-.238-.322-.194-.661.16-1.019.482-.489.977-.966,1.5-1.485l-3.224-2.014v.55q0,2.994,0,5.988c0,.914.179,1.09,1.111,1.09.543,0,1.086-.006,1.629,0a.706.706,0,1,1-.01,1.4c-.69.006-1.38.015-2.069,0a2.091,2.091,0,0,1-2.06-2.051q-.03-3.588,0-7.176a2.063,2.063,0,0,1,2.028-2.034q5.019-.029,10.038,0a2.076,2.076,0,0,1,2.009,1.962c.029.512.019,1.027.006,1.541a.7.7,0,1,1-1.4-.019c-.012-.39,0-.78,0-1.235m-9.778-.833-.024.073c1.314.822,2.624,1.65,3.95,2.454a.588.588,0,0,0,.5-.043c.978-.587,1.943-1.2,2.91-1.8.326-.2.649-.414,1.066-.68Z" transform="translate(-47.914 -63.936)"/><path class="a" d="M146.136,131.817q0-1.383,0-2.765c0-.714.229-1.047.714-1.039s.693.331.693,1.06a27.415,27.415,0,0,0,.1,2.815c.246-.26.482-.53.74-.778a.7.7,0,0,1,1.051-.068.689.689,0,0,1-.041,1.051q-1,1.024-2.018,2.024a.7.7,0,0,1-1.084-.015q-1-.987-1.988-1.992a.712.712,0,1,1,1.011-.985c.249.242.482.5.721.754l.1-.062" transform="translate(-135.556 -122.367)"/></g></g></svg>