<svg xmlns="http://www.w3.org/2000/svg" xmlns:xlink="http://www.w3.org/1999/xlink" width="19.95" height="26.023" viewBox="0 0 19.95 26.023"><defs><style>.a{fill:none;}.b{clip-path:url(#a);}.c{fill:#f4f4ef;}.d{fill:#e75022;}.e{fill:#e6e5dc;}.f{fill:#e75023;}.g{fill:#e75224;}.h{fill:#fff;}</style><clipPath id="a"><rect class="a" width="19.95" height="26.023"/></clipPath></defs><g class="b"><path class="c" d="M19.99,5.593c.126.1.1.243.1.376q0,6.071-.008,12.142H.178q0-8.65-.007-17.3A.737.737,0,0,1,.987.006q6.545,0,13.091,0c.147,0,.31-.042.423.1,0,1.669.011,3.338-.007,5.007,0,.382.115.488.49.484,1.669-.018,3.338-.008,5.008-.008M8.014,13.478c.018-.222-.143-.356-.286-.5-.658-.658-1.3-1.329-1.979-1.969-.257-.243-.267-.384-.006-.632C6.454,9.7,7.139,9,7.829,8.3a.466.466,0,0,0,.055-.717c-.243-.247-.493-.152-.709.064Q5.862,8.956,4.552,10.267a.516.516,0,0,0-.011.834c.265.262.526.527.79.79l1.831,1.83a.5.5,0,0,0,.589.169.419.419,0,0,0,.262-.411m7.206-2.752c-.082.089-.17.189-.264.284-.693.7-1.39,1.388-2.079,2.088a.463.463,0,1,0,.648.652q1.349-1.346,2.695-2.694a.465.465,0,0,0,.014-.72Q14.877,8.962,13.5,7.606a.432.432,0,0,0-.673-.015.443.443,0,0,0,.031.675c.08.087.165.17.249.254q.934.934,1.867,1.869c.092.093.22.165.243.337" transform="translate(-0.154 0)"/><path class="d" d="M.025,178.1h19.9q.012,3.6.023,7.209a.649.649,0,0,1-.655.695,2.953,2.953,0,0,1-.355,0H1.011c-.838,0-1.014-.172-1.012-1q.01-3.452.025-6.9" transform="translate(0 -159.994)"/><path class="e" d="M146.506,6.562c-1.669,0-3.339-.01-5.008.008-.375,0-.494-.1-.49-.484.019-1.669.008-3.338.007-5.007a10.076,10.076,0,0,1,1.207,1.154c1.434,1.437,2.856,2.885,4.283,4.329" transform="translate(-126.669 -0.969)"/><path class="f" d="M44.8,79.18a.418.418,0,0,1-.262.411.5.5,0,0,1-.589-.169l-1.831-1.83c-.263-.263-.525-.528-.79-.79a.516.516,0,0,1,.011-.834q1.313-1.307,2.622-2.619c.216-.216.467-.311.709-.064a.466.466,0,0,1-.055.716c-.69.7-1.376,1.4-2.087,2.077-.261.248-.252.389.006.632.676.639,1.322,1.31,1.98,1.969.143.143.3.278.286.5" transform="translate(-36.935 -65.702)"/><path class="g" d="M125.766,76.422c-.023-.172-.151-.244-.243-.337q-.93-.938-1.867-1.869c-.084-.084-.169-.166-.249-.254a.443.443,0,0,1-.031-.675.432.432,0,0,1,.673.015q1.372,1.359,2.73,2.731a.465.465,0,0,1-.014.72q-1.344,1.35-2.695,2.694a.463.463,0,1,1-.648-.652c.689-.7,1.386-1.392,2.079-2.088.094-.094.182-.2.264-.284" transform="translate(-110.7 -65.696)"/><path class="h" d="M20.754,196.49v1.773h1.871V196.49h.808v4.425h-.808v-1.95H20.754v1.95h-.807V196.49Z" transform="translate(-17.919 -176.51)"/><path class="h" d="M60.522,197.167H59.261v-.676H62.6v.676H61.329v3.749h-.807Z" transform="translate(-53.235 -176.51)"/><path class="h" d="M99.778,199.11c-.026-.571-.059-1.261-.053-1.858h-.02c-.144.538-.328,1.136-.525,1.694l-.643,1.917h-.624l-.591-1.891c-.171-.565-.328-1.169-.446-1.72h-.013c-.02.578-.046,1.28-.079,1.884l-.1,1.779h-.755l.3-4.425H97.29l.578,1.779c.158.519.3,1.044.407,1.536h.02c.118-.479.269-1.024.44-1.543l.611-1.773h1.05l.256,4.425h-.788Z" transform="translate(-86.176 -176.51)"/><path class="h" d="M150.418,196.49h.807v3.749h1.819v.676h-2.626Z" transform="translate(-135.123 -176.51)"/></g></svg>