<svg xmlns="http://www.w3.org/2000/svg" width="19.95" height="25.973" viewBox="0 0 19.95 25.973"><defs><style>.a{fill:#f4f4ef;}.b{fill:#e6e5dc;}.c{fill:#f6712e;}.d{fill:#f29c1f;}.e{fill:#fff;}</style></defs><g transform="translate(-285.897 -419.257)"><path class="a" d="M-2705.993-466.975h-13.459c-.376,0-.68.3-.68.894v24.506a.809.809,0,0,0,.68.573h18.585c.3.008.577-.366.678-.651v-19.3c0-.323-.043-.426-.117-.5l-5.4-5.4A.412.412,0,0,0-2705.993-466.975Z" transform="translate(3006.03 886.233)"/><path class="b" d="M-2708.1-466.916v5.495h5.495Z" transform="translate(3008.371 886.244)"/><path class="c" d="M-2700.868-443.948h-18.585a.68.68,0,0,1-.68-.68v-7.206h19.943v7.2a.678.678,0,0,1-.674.683Z" transform="translate(3006.03 889.178)"/><path class="d" d="M-2700.187-455.427c.012,1.318,0,5.024,0,5.13h-19.534c-.135,0-.269-.006-.409-.006.006-.018.012-.029.018-.047.7-.589,1.4-1.171,2.1-1.766q2.789-2.369,5.57-4.742c.146-.135.222-.105.35.023.723.735,1.462,1.456,2.185,2.2.164.168.233.146.385-.012,1.492-1.654,3-3.292,4.493-4.947.151-.17.239-.18.413-.018,1.416,1.364,2.843,2.715,4.266,4.067C-2700.309-455.506-2700.187-455.427-2700.187-455.427Z" transform="translate(3006.03 887.642)"/><path class="c" d="M-2712.819-461.037a2.1,2.1,0,0,1-2.118,2.1,2.059,2.059,0,0,1-2.1-2.1,2.074,2.074,0,0,1,2.12-2.114A2.126,2.126,0,0,1-2712.819-461.037Z" transform="translate(3006.631 886.976)"/><g transform="translate(290.441 438.848)"><path class="e" d="M-2715.475-450.534v4.68h-.854v-4.68Z" transform="translate(2716.329 450.583)"/><path class="e" d="M-2710.821-447.763c-.029-.6-.063-1.334-.056-1.966h-.021c-.153.57-.347,1.2-.555,1.792l-.681,2.028h-.659l-.626-2c-.181-.6-.347-1.238-.472-1.82h-.013c-.021.612-.049,1.355-.084,1.994l-.1,1.881h-.8l.313-4.68h1.125l.61,1.881c.166.548.312,1.1.43,1.626h.021c.126-.507.284-1.083.465-1.632l.646-1.875h1.111l.271,4.68h-.834Z" transform="translate(2716.608 450.583)"/><path class="e" d="M-2706.189-446.061a4.635,4.635,0,0,1-1.508.264,2.524,2.524,0,0,1-1.832-.625,2.323,2.323,0,0,1-.653-1.723,2.379,2.379,0,0,1,2.6-2.431,3.11,3.11,0,0,1,1.243.222l-.187.688a2.519,2.519,0,0,0-1.062-.2,1.566,1.566,0,0,0-1.7,1.681,1.548,1.548,0,0,0,1.625,1.7,1.62,1.62,0,0,0,.645-.1v-1.166h-.826v-.674h1.653Z" transform="translate(2717.523 450.575)"/></g></g></svg>