<svg xmlns="http://www.w3.org/2000/svg" width="19.946" height="25.977" viewBox="0 0 19.946 25.977"><defs><style>.a{fill:#e9e9e0;}.b{fill:#d9d7ca;}.c{fill:#cc4b4c;}.d{fill:#fff;}</style></defs><g transform="translate(-6.5)"><path class="a" d="M20.641,0H7.179C6.8,0,6.5.3,6.5.893V25.513a.7.7,0,0,0,.679.464H25.768a.7.7,0,0,0,.679-.464V6.02c0-.323-.043-.427-.119-.5l-5.4-5.4A.41.41,0,0,0,20.641,0Z"/><path class="b" d="M37.5.151v5.5H43Z" transform="translate(-16.62 -0.081)"/><path class="c" d="M18.39,19.162h0a.745.745,0,0,1-.449-.151,1.112,1.112,0,0,1-.517-1.04c.084-.755,1.018-1.546,2.776-2.351a31.138,31.138,0,0,0,1.757-4.987c-.463-1.008-.913-2.315-.585-3.081a.89.89,0,0,1,.526-.564,2.277,2.277,0,0,1,.471-.08c.234,0,.439.3.585.487s.447.544-.173,3.155a14.822,14.822,0,0,0,2.36,3.508,9.024,9.024,0,0,1,1.558-.166c.726,0,1.167.169,1.346.518a.939.939,0,0,1-.181,1,1.233,1.233,0,0,1-1.03.552,3.084,3.084,0,0,1-1.953-1.06,22.226,22.226,0,0,0-4.1,1.309,13.161,13.161,0,0,1-1.105,1.972C19.206,18.851,18.8,19.162,18.39,19.162Zm1.235-2.378c-.991.557-1.4,1.015-1.425,1.273,0,.043-.017.155.2.321C18.47,18.356,18.873,18.172,19.625,16.784Zm6.326-2.06c.378.291.47.438.718.438a.7.7,0,0,0,.561-.2.734.734,0,0,0,.107-.193c-.057-.03-.133-.091-.545-.091A6.783,6.783,0,0,0,25.951,14.723ZM22.486,11.67a33.071,33.071,0,0,1-1.24,3.509,23.177,23.177,0,0,1,3.013-.937A15.879,15.879,0,0,1,22.486,11.67ZM22.2,7.745a1.112,1.112,0,0,0,.045,1.492C22.689,8.256,22.224,7.738,22.2,7.745Z" transform="translate(-5.854 -3.704)"/><path class="c" d="M25.768,46.886H7.179a.679.679,0,0,1-.679-.679V39H26.446v7.207A.679.679,0,0,1,25.768,46.886Z" transform="translate(0 -20.909)"/><g transform="translate(10.788 19.911)"><path class="d" d="M16.505,47.6h-.761V42.924h1.344a1.887,1.887,0,0,1,.59.1,1.6,1.6,0,0,1,.523.285,1.49,1.49,0,0,1,.374.46,1.274,1.274,0,0,1,.143.606,1.657,1.657,0,0,1-.121.644,1.345,1.345,0,0,1-.336.485,1.515,1.515,0,0,1-.52.3,2,2,0,0,1-.672.108H16.5V47.6Zm0-4.1v1.852h.7a.829.829,0,0,0,.276-.048.7.7,0,0,0,.25-.155.76.76,0,0,0,.184-.3,1.426,1.426,0,0,0,.07-.479,1.3,1.3,0,0,0-.032-.263.759.759,0,0,0-.13-.285.769.769,0,0,0-.276-.228,1.025,1.025,0,0,0-.469-.092h-.571Z" transform="translate(-15.744 -42.924)"/><path class="d" d="M27.858,45.131a3.434,3.434,0,0,1-.124.986,2.452,2.452,0,0,1-.314.685,1.613,1.613,0,0,1-.428.435,2.148,2.148,0,0,1-.46.238,1.9,1.9,0,0,1-.406.1,2.7,2.7,0,0,1-.273.021H24.084V42.924h1.408a2.675,2.675,0,0,1,1.037.187,2.153,2.153,0,0,1,.742.5,2.043,2.043,0,0,1,.441.707A2.341,2.341,0,0,1,27.858,45.131ZM25.6,47.04a1.26,1.26,0,0,0,1.116-.494,2.51,2.51,0,0,0,.342-1.433,2.427,2.427,0,0,0-.07-.577,1.235,1.235,0,0,0-.27-.517,1.422,1.422,0,0,0-.542-.374,2.335,2.335,0,0,0-.888-.143h-.444V47.04Z" transform="translate(-20.215 -42.924)"/><path class="d" d="M35.372,43.5v1.471h1.953v.52H35.372V47.6H34.6V42.924h2.923V43.5Z" transform="translate(-25.852 -42.924)"/></g></g></svg>