<svg xmlns="http://www.w3.org/2000/svg" xmlns:xlink="http://www.w3.org/1999/xlink" width="19.951" height="26.023" viewBox="0 0 19.951 26.023"><defs><style>.a{fill:none;}.b{clip-path:url(#a);}.c{fill:#f2f2ec;}.d{fill:#248332;}.e{fill:#e1ded3;}.f{clip-path:url(#b);}.g{fill:#fff;}</style><clipPath id="a"><rect class="a" width="19.95" height="26.023" transform="translate(0.001 0)"/></clipPath><clipPath id="b"><rect class="a" width="19.951" height="26.023" transform="translate(0 0)"/></clipPath></defs><g class="b"><path class="c" d="M19.837,5.593c.126.1.1.243.1.376q0,6.07-.008,12.142H.025Q.025,9.46.018.811a.737.737,0,0,1,.816-.8H13.925c.147,0,.31-.042.423.1,0,1.669.011,3.338-.007,5.007,0,.382.115.488.49.484,1.669-.018,3.338-.008,5.008-.008"/><path class="d" d="M.026,18.106h19.9q.012,3.6.023,7.209a.648.648,0,0,1-.6.693.487.487,0,0,1-.054,0,3,3,0,0,1-.355,0H1.012c-.838,0-1.014-.172-1.012-1q.011-3.452.025-6.9"/><path class="e" d="M19.838,5.593c-1.669,0-3.339-.01-5.008.008-.375,0-.494-.1-.49-.484.019-1.669.008-3.338.007-5.007a10.128,10.128,0,0,1,1.207,1.154C16.988,2.7,18.41,4.149,19.837,5.593"/></g><g class="f"><path class="d" d="M7.426,3.481a.326.326,0,0,0,.326-.326V2.374a.326.326,0,0,0-.326-.326H6.176V.616H3.986A.326.326,0,0,0,3.66.942v.781a.325.325,0,0,0,.326.325h1.25V3.481H3.986a.326.326,0,0,0-.326.326v.781a.326.326,0,0,0,.326.326h1.25V6.346H3.986a.326.326,0,0,0-.326.326v.781a.326.326,0,0,0,.326.326h1.25V9.211h2.19a.326.326,0,0,0,.326-.325V8.1a.325.325,0,0,0-.326-.325H6.176V6.346h1.25a.326.326,0,0,0,.326-.326V5.239a.325.325,0,0,0-.326-.325H6.176V3.481Z"/><path class="d" d="M7.116,13.774h0l-.494-1.36V10.587a.433.433,0,0,0-.433-.433H5.351a.433.433,0,0,0-.433.433v1.827l-.5,1.454c0,.011-.008.021-.011.032v0a1.441,1.441,0,1,0,2.712-.13m-.592.541a.741.741,0,1,1-1.482,0,.752.752,0,0,1,.021-.173h0l.006-.018c0-.018.01-.035.015-.051l.176-.578H6.3L6.455,14a.774.774,0,0,1,.059.2l.01.032H6.519a.755.755,0,0,1,.005.083"/><path class="g" d="M3.5,19.618a10.215,10.215,0,0,1,1.56-.108,2.646,2.646,0,0,1,1.677.407A1.316,1.316,0,0,1,7.213,21,1.377,1.377,0,0,1,6.3,22.279V22.3a1.308,1.308,0,0,1,.692.969c.161.584.323,1.261.423,1.461h-1.2a6.47,6.47,0,0,1-.362-1.208c-.138-.646-.362-.822-.838-.83H4.66v2.038H3.5Zm1.161,2.23h.461c.585,0,.931-.292.931-.746,0-.477-.323-.715-.862-.723a2.98,2.98,0,0,0-.53.038Z"/><path class="g" d="M9.333,23.4l-.369,1.331H7.75l1.583-5.184h1.539l1.607,5.184H11.217l-.4-1.331Zm1.316-.876-.324-1.1c-.092-.307-.184-.692-.261-1h-.017c-.075.308-.153.7-.238,1l-.307,1.1Z"/><path class="g" d="M13.169,19.618a10.215,10.215,0,0,1,1.56-.108,2.646,2.646,0,0,1,1.677.407A1.316,1.316,0,0,1,16.883,21a1.377,1.377,0,0,1-.915,1.277V22.3a1.308,1.308,0,0,1,.692.969c.161.584.323,1.261.423,1.461h-1.2a6.47,6.47,0,0,1-.362-1.208c-.138-.646-.362-.822-.838-.83H14.33v2.038H13.169Zm1.161,2.23h.461c.585,0,.931-.292.931-.746,0-.477-.323-.715-.862-.723a2.98,2.98,0,0,0-.53.038Z"/></g></svg>