<svg xmlns="http://www.w3.org/2000/svg" width="12.3" height="12.301" viewBox="0 0 12.3 12.301"><defs><style>.a{fill:#7f8588;}</style></defs><g transform="translate(0.15 0.15)"><path class="a" d="M8731.617,17658.982a.817.817,0,0,1,1.557-.5,4.622,4.622,0,1,0,4.433-5.855,4.72,4.72,0,0,0-2.491.713l.815-.133a.831.831,0,0,1,.142-.012.812.812,0,0,1,.8.682.825.825,0,0,1-.142.611.816.816,0,0,1-.532.328l-2.832.471a.825.825,0,0,1-.412-.041.265.265,0,0,1-.071-.039s-.009,0-.018-.01l-.022-.008a.827.827,0,0,1-.133-.08.281.281,0,0,1-.058-.07c0-.006-.009-.014-.014-.014l-.013-.014a.58.58,0,0,1-.1-.119.459.459,0,0,1-.035-.09.036.036,0,0,0-.009-.021.109.109,0,0,0-.014-.031.513.513,0,0,1-.04-.119l-.5-2.664a.821.821,0,0,1,.129-.617.807.807,0,0,1,.522-.336.533.533,0,0,1,.146-.014.818.818,0,0,1,.807.66l.134.715a6.3,6.3,0,0,1,3.94-1.379,6.152,6.152,0,1,1-5.989,7.982Z" transform="translate(-8731.729 -17651.15)"/></g></svg>