<svg xmlns="http://www.w3.org/2000/svg" width="12" height="12" viewBox="0 0 12 12"><defs><style>.a{fill:#fff;}</style></defs><path class="a" d="M.465,6.951a.667.667,0,0,1,.837.433,4.753,4.753,0,0,0,4.575,3.283A4.734,4.734,0,0,0,10.667,6,4.735,4.735,0,0,0,5.877,1.333a4.835,4.835,0,0,0-3.1,1.113l1.444-.238a.666.666,0,1,1,.217,1.315l-2.831.468A.683.683,0,0,1,1.5,4a.658.658,0,0,1-.229-.041A.648.648,0,0,1,1.2,3.92a.662.662,0,0,1-.128-.075.6.6,0,0,1-.06-.07.573.573,0,0,1-.088-.1.7.7,0,0,1-.036-.095.612.612,0,0,1-.045-.119L.345.791A.667.667,0,0,1,1.655.543l.181.961A6.154,6.154,0,0,1,5.877,0,6.069,6.069,0,0,1,12,6a6.069,6.069,0,0,1-6.123,6A6.084,6.084,0,0,1,.031,7.788a.667.667,0,0,1,.433-.837"/></svg>