<svg xmlns="http://www.w3.org/2000/svg" width="14.236" height="14.158" viewBox="0 0 14.236 14.158"><defs><style>.a{fill:#7f8588;stroke:#7f8588;stroke-width:0.5px;}</style></defs><g transform="translate(0.25 0.25)"><g transform="translate(0 0)"><path class="a" d="M6.037,0a6.021,6.021,0,1,0,6.037,6.021A6.036,6.036,0,0,0,6.037,0Zm0,11.052a5.031,5.031,0,1,1,5.048-5.031A5.045,5.045,0,0,1,6.037,11.052Z"/></g><g transform="translate(9.452 9.435)"><path class="a" d="M4.093,3.377.844.144a.495.495,0,0,0-.7.7L3.4,4.079a.495.495,0,1,0,.7-.7Z"/></g></g></svg>