<svg xmlns="http://www.w3.org/2000/svg" xmlns:xlink="http://www.w3.org/1999/xlink" width="13.999" height="12.525" viewBox="0 0 13.999 12.525"><defs><style>.a{fill:#7f8588;}.b{clip-path:url(#a);}</style><clipPath id="a"><path class="a" d="M12.34.562A6.56,6.56,0,0,1,6.6,5.487V4.66a1.326,1.326,0,0,0-.806-1.208,1.5,1.5,0,0,0-1.6.224L.456,6.936a1.291,1.291,0,0,0,0,1.968l3.733,3.26a1.5,1.5,0,0,0,1.6.224A1.326,1.326,0,0,0,6.6,11.18v-.9A8.018,8.018,0,0,0,14,2.394,7.774,7.774,0,0,0,13.772.562a.737.737,0,0,0-1.432,0Z" transform="translate(13.999 12.525) rotate(180)"/></clipPath></defs><path class="a" d="M13.057,0a.735.735,0,0,0-.716.562A6.59,6.59,0,0,1,6.6,5.487V4.66a1.326,1.326,0,0,0-.806-1.208,1.511,1.511,0,0,0-.631-.137,1.478,1.478,0,0,0-.973.361L.456,6.936a1.291,1.291,0,0,0,0,1.968l3.733,3.26a1.478,1.478,0,0,0,.973.361,1.511,1.511,0,0,0,.631-.137A1.326,1.326,0,0,0,6.6,11.18v-.9a8.2,8.2,0,0,0,5.255-2.533A7.778,7.778,0,0,0,14,2.394,7.777,7.777,0,0,0,13.772.562.733.733,0,0,0,13.057,0Zm-7.2,7a8.379,8.379,0,0,0,3.668-.844,8.088,8.088,0,0,0,2.823-2.294,6.6,6.6,0,0,1-6.491,4.98.738.738,0,0,0-.737.737v1.417L1.57,7.919l3.554-3.1V6.262A.738.738,0,0,0,5.861,7Z" transform="translate(13.999 12.525) rotate(180)"/></svg>