<svg xmlns="http://www.w3.org/2000/svg" xmlns:xlink="http://www.w3.org/1999/xlink" width="19.95" height="26.025" viewBox="0 0 19.95 26.025"><defs><style>.a{fill:none;}.b{clip-path:url(#a);}.c{fill:#f4f4ef;}.d{fill:#364e9c;}.e{fill:#e6e5dc;}.f{fill:#fff;}</style><clipPath id="a"><rect class="a" width="19.95" height="26.025"/></clipPath></defs><g class="b"><path class="c" d="M20.008,5.6c.141.117.1.279.1.426q0,6.045-.006,12.089H.2Q.2,9.475.193.837A.743.743,0,0,1,1.04.009q6.5,0,13.006,0c.162,0,.344-.057.474.1,0,1.669.011,3.338-.007,5.007,0,.382.115.488.49.484,1.669-.018,3.338-.008,5.007-.008m-8.238,1a.47.47,0,0,0-.342-.523.419.419,0,0,0-.513.219,2.055,2.055,0,0,0-.155.372Q10,8.809,9.243,10.955c-.353,1-.7,2-1.057,3-.117.33-.263.693.176.861s.575-.174.7-.52q1.3-3.7,2.612-7.389c.039-.111.073-.224.1-.315m4.174,4.083a.394.394,0,0,0-.129-.32Q14.435,8.973,13.048,7.6a.422.422,0,0,0-.636-.031.461.461,0,0,0-.022.681,3.247,3.247,0,0,0,.28.294c.622.623,1.235,1.257,1.874,1.862.248.235.226.376-.008.6-.7.669-1.369,1.362-2.052,2.043-.231.23-.345.489-.085.751s.523.132.749-.093q1.294-1.293,2.588-2.586a.525.525,0,0,0,.21-.439M7.1,13.934a.452.452,0,0,0,.437-.256c.138-.266-.007-.457-.178-.63-.69-.7-1.377-1.4-2.085-2.079-.229-.219-.224-.344,0-.561.708-.68,1.393-1.383,2.087-2.077.23-.229.346-.484.077-.748s-.522-.133-.748.094Q5.385,8.989,4.074,10.3a.486.486,0,0,0,.005.788Q5.41,12.411,6.737,13.74a.5.5,0,0,0,.366.194" transform="translate(-0.173 0)"/><path class="d" d="M.026,178.122h19.9q.012,3.606.022,7.213a.647.647,0,0,1-.7.7c-.1.006-.2,0-.3,0H1.011c-.842,0-1.012-.166-1.01-1q.01-3.454.025-6.908" transform="translate(-0.001 -160.01)"/><path class="e" d="M146.5,6.6c-1.669,0-3.338-.01-5.007.008-.375,0-.494-.1-.49-.484.019-1.669.008-3.338.007-5.007a10.072,10.072,0,0,1,1.207,1.154C143.656,3.7,145.078,5.153,146.5,6.6" transform="translate(-126.669 -1)"/><path class="d" d="M81.316,60.056c-.029.091-.062.2-.1.315q-1.307,3.694-2.612,7.389c-.121.346-.262.686-.7.52s-.293-.531-.176-.861c.356-1,.7-2,1.057-3q.757-2.145,1.519-4.29a2.046,2.046,0,0,1,.155-.372.419.419,0,0,1,.513-.219.47.47,0,0,1,.342.523" transform="translate(-69.719 -53.459)"/><path class="d" d="M122.455,76.347a.526.526,0,0,1-.21.439q-1.3,1.292-2.588,2.586c-.226.225-.484.361-.749.093s-.145-.521.085-.751c.683-.682,1.356-1.374,2.052-2.043.234-.225.256-.366.008-.6-.639-.606-1.251-1.239-1.874-1.862a3.273,3.273,0,0,1-.28-.294.462.462,0,0,1,.022-.681.422.422,0,0,1,.636.031q1.392,1.374,2.768,2.764a.394.394,0,0,1,.129.32" transform="translate(-106.683 -65.668)"/><path class="d" d="M39.626,79.636a.5.5,0,0,1-.366-.194q-1.329-1.327-2.659-2.654A.486.486,0,0,1,36.6,76q1.313-1.307,2.621-2.62c.227-.227.478-.359.748-.094s.153.519-.077.748c-.694.694-1.379,1.4-2.087,2.077-.226.217-.231.342,0,.561.708.679,1.395,1.381,2.085,2.079.171.172.316.364.178.63a.452.452,0,0,1-.437.256" transform="translate(-32.697 -65.703)"/><path class="f" d="M40.374,202.454l-.479-.88c-.19-.341-.315-.578-.44-.834h-.02c-.105.256-.223.492-.4.834l-.44.88h-.926l1.313-2.239-1.26-2.186h.926l.479.912c.144.276.25.492.368.742h.013c.118-.276.21-.473.348-.742l.473-.912h.926l-1.293,2.16,1.346,2.265Z" transform="translate(-33.839 -177.892)"/><path class="f" d="M82.06,200.648c-.026-.571-.059-1.26-.053-1.858h-.02c-.144.538-.328,1.136-.525,1.694l-.643,1.917H80.2L79.6,200.51c-.171-.565-.328-1.169-.446-1.72h-.013c-.02.578-.046,1.28-.079,1.884l-.1,1.779h-.755l.3-4.425h1.064l.578,1.779c.158.519.3,1.044.407,1.536h.02c.118-.479.269-1.024.44-1.543l.611-1.772h1.05l.256,4.425h-.788Z" transform="translate(-70.26 -177.892)"/><path class="f" d="M132.7,198.028h.807v3.748h1.819v.676H132.7Z" transform="translate(-119.205 -177.892)"/></g></svg>