<svg xmlns="http://www.w3.org/2000/svg" xmlns:xlink="http://www.w3.org/1999/xlink" width="19.951" height="26.023" viewBox="0 0 19.951 26.023"><defs><style>.a{fill:none;}.b{clip-path:url(#a);}.c{fill:#f6f8f4;}.d{fill:#ffad34;}.e{fill:#e7e9e0;}.f{clip-path:url(#b);}.g{fill:#fff;}</style><clipPath id="a"><path class="a" d="M0,0h19.95V-26.023H0Z"/></clipPath><clipPath id="b"><path class="a" d="M0-26.023H19.951V0H0Z"/></clipPath></defs><g transform="translate(0 26.023)"><g class="b"><g transform="translate(19.837 -20.43)"><path class="c" d="M0,0C.126.1.1.243.1.376q0,6.07-.008,12.142h-19.9q0-8.65-.007-17.3a.737.737,0,0,1,.661-.806.731.731,0,0,1,.155,0H-5.912c.147,0,.31-.042.423.1,0,1.669.011,3.338-.007,5.007,0,.382.115.488.49.484C-3.337-.014-1.668,0,0,0"/></g><g transform="translate(0.026 -7.917)"><path class="d" d="M0,0H19.9q.012,3.6.023,7.209a.648.648,0,0,1-.6.693.487.487,0,0,1-.054,0,3,3,0,0,1-.355,0H.986c-.838,0-1.014-.172-1.012-1Q-.015,3.453,0,0"/></g><g transform="translate(19.838 -20.43)"><path class="e" d="M0,0C-1.669,0-3.339-.01-5.008.008c-.375,0-.494-.1-.49-.484.019-1.669.008-3.338.007-5.007A10.128,10.128,0,0,1-4.284-4.329C-2.85-2.892-1.428-1.444,0,0"/></g></g><g class="f"><g transform="translate(7.426 -22.542)"><path class="d" d="M0,0A.326.326,0,0,0,.326-.326v-.781A.326.326,0,0,0,0-1.433H-1.25V-2.865H-3.44a.326.326,0,0,0-.326.326v.781a.325.325,0,0,0,.326.325h1.25V0H-3.44a.326.326,0,0,0-.326.326v.781a.326.326,0,0,0,.326.326h1.25V2.865H-3.44a.326.326,0,0,0-.326.326v.781A.326.326,0,0,0-3.44,4.3h1.25V5.73H0a.326.326,0,0,0,.326-.325V4.623A.325.325,0,0,0,0,4.3H-1.25V2.865H0a.326.326,0,0,0,.326-.326V1.758A.325.325,0,0,0,0,1.433H-1.25V0Z"/></g><g transform="translate(6.524 -11.708)"><path class="d" d="M0,0A.741.741,0,0,1-.741.741.741.741,0,0,1-1.482,0a.752.752,0,0,1,.021-.173h0l.006-.018c0-.018.01-.035.015-.051l.176-.578H-.223l.154.508a.774.774,0,0,1,.059.2L0-.083H0A.755.755,0,0,1,0,0M.592-.541h0L.1-1.9V-3.728a.433.433,0,0,0-.433-.433h-.838a.433.433,0,0,0-.433.433V-1.9l-.5,1.454c0,.011-.008.021-.011.032v0h0a1.443,1.443,0,0,0-.062.418A1.442,1.442,0,0,0-.741,1.449,1.442,1.442,0,0,0,.7.007,1.447,1.447,0,0,0,.592-.541"/></g><g transform="translate(5.169 -1.922)"><path class="g" d="M0,0,2.469-3.553v-.03H.23v-.97H3.991v.677L1.577-.369v.031H4.03V.631H0Z"/></g><path class="g" d="M11.112-1.291H9.935V-6.475h1.177Z"/><g transform="translate(13.287 -4.052)"><path class="g" d="M0,0A1.8,1.8,0,0,0,.393.031C1.015.031,1.4-.285,1.4-.815c0-.477-.331-.762-.915-.762A1.931,1.931,0,0,0,0-1.53ZM-1.161-2.354A9.664,9.664,0,0,1,.423-2.461a2.485,2.485,0,0,1,1.584.415,1.515,1.515,0,0,1,.554,1.2A1.653,1.653,0,0,1,2.084.384,2.4,2.4,0,0,1,.4.931,2.826,2.826,0,0,1,0,.907V2.761H-1.161Z"/></g></g></g></svg>